G04 FreePCB version 1.359*
G04 C:\Users\Spark\Desktop\GitHub\Main\electronics\Cape_of_Stomping\CAM\bottom_solder_mask.grb*
G04 bottom solder mask layer *
G04 Scale: 100 percent, Rotated: No, Reflected: No *
%FSLAX24Y24*%
%MOIN*%
%LN bottom solder mask *%
G04 Rounded Rectangle Macro, params: W/2, H/2, R *
%AMRNDREC*
21,1,$1+$1,$2+$2-$3-$3,0,0,0*
21,1,$1+$1-$3-$3,$2+$2,0,0,0*
1,1,$3+$3,$1-$3,$2-$3*
1,1,$3+$3,$3-$1,$2-$3*
1,1,$3+$3,$1-$3,$3-$2*
1,1,$3+$3,$3-$1,$3-$2*%
G04 Rectangular Thermal Macro, params: W/2, H/2, T/2 *
%AMRECTHERM*
$4=$3/2*
21,1,$1-$3,$2-$3,0-$1/2-$4,0-$2/2-$4,0*
21,1,$1-$3,$2-$3,0-$1/2-$4,$2/2+$4,0*
21,1,$1-$3,$2-$3,$1/2+$4,0-$2/2-$4,0*
21,1,$1-$3,$2-$3,$1/2+$4,$2/2+$4,0*%
%ADD10C,0.005000*%
%ADD11C,0.091000*%
%ADD12R,0.086000X0.086000*%
%ADD13C,0.086000*%
%ADD14C,0.101000*%
%ADD15C,0.081000*%
%ADD16R,0.071000X0.071000*%
%ADD17C,0.071000*%
%ADD18R,0.059307X0.063244*%
%ADD19R,0.146000X0.146000*%
%ADD20C,0.146000*%
%ADD21C,0.134000*%
%ADD22R,0.136000X0.136000*%
%ADD23C,0.136000*%
%ADD24R,0.063244X0.059307*%
%ADD25C,0.044000*%
G90*
G70D02*

G04 Step and Repeat for panelization *

G04 ----------------------- Draw board outline (positive)*
%LPD*%
G54D10*
G01X5700Y0D02*
G01X5700Y5000D01*
G04 end of side 1*
G01X5744Y5000D01*
G01X5788Y5001D01*
G01X5832Y5002D01*
G01X5876Y5005D01*
G01X5919Y5008D01*
G01X5963Y5011D01*
G01X6007Y5016D01*
G01X6051Y5021D01*
G01X6094Y5026D01*
G01X6137Y5032D01*
G01X6181Y5039D01*
G01X6224Y5047D01*
G01X6266Y5055D01*
G01X6309Y5064D01*
G01X6351Y5073D01*
G01X6393Y5083D01*
G01X6435Y5094D01*
G01X6477Y5105D01*
G01X6518Y5117D01*
G01X6559Y5130D01*
G01X6600Y5143D01*
G01X6640Y5157D01*
G01X6680Y5171D01*
G01X6720Y5186D01*
G01X6759Y5202D01*
G01X6798Y5218D01*
G01X6837Y5235D01*
G01X6875Y5252D01*
G01X6912Y5270D01*
G01X6950Y5289D01*
G01X6986Y5308D01*
G01X7023Y5327D01*
G01X7059Y5347D01*
G01X7094Y5368D01*
G01X7129Y5389D01*
G01X7163Y5411D01*
G01X7197Y5433D01*
G01X7230Y5456D01*
G01X7262Y5479D01*
G01X7294Y5503D01*
G01X7326Y5527D01*
G01X7357Y5551D01*
G01X7387Y5576D01*
G01X7417Y5602D01*
G01X7446Y5628D01*
G01X7474Y5654D01*
G01X7502Y5681D01*
G01X7529Y5708D01*
G01X7555Y5736D01*
G01X7581Y5764D01*
G01X7606Y5792D01*
G01X7630Y5821D01*
G01X7654Y5850D01*
G01X7677Y5880D01*
G01X7699Y5909D01*
G01X7720Y5940D01*
G01X7741Y5970D01*
G01X7761Y6001D01*
G01X7780Y6032D01*
G01X7798Y6063D01*
G01X7816Y6095D01*
G01X7833Y6127D01*
G01X7849Y6159D01*
G01X7864Y6191D01*
G01X7879Y6224D01*
G01X7892Y6256D01*
G01X7905Y6289D01*
G01X7917Y6323D01*
G01X7929Y6356D01*
G01X7939Y6389D01*
G01X7949Y6423D01*
G01X7957Y6457D01*
G01X7965Y6491D01*
G01X7973Y6525D01*
G01X7979Y6559D01*
G01X7984Y6593D01*
G01X7989Y6627D01*
G01X7993Y6662D01*
G01X7996Y6696D01*
G01X7998Y6731D01*
G01X7999Y6765D01*
G01X8000Y6800D01*
G04 end of side 2*
G01X8000Y14500D01*
G04 end of side 3*
G01X7999Y14536D01*
G01X7998Y14573D01*
G01X7996Y14609D01*
G01X7993Y14645D01*
G01X7990Y14682D01*
G01X7986Y14718D01*
G01X7981Y14755D01*
G01X7975Y14791D01*
G01X7968Y14827D01*
G01X7961Y14863D01*
G01X7953Y14899D01*
G01X7944Y14934D01*
G01X7935Y14970D01*
G01X7925Y15005D01*
G01X7914Y15041D01*
G01X7902Y15076D01*
G01X7890Y15111D01*
G01X7876Y15145D01*
G01X7862Y15180D01*
G01X7848Y15214D01*
G01X7832Y15248D01*
G01X7816Y15282D01*
G01X7800Y15315D01*
G01X7782Y15348D01*
G01X7764Y15381D01*
G01X7745Y15414D01*
G01X7725Y15446D01*
G01X7705Y15478D01*
G01X7684Y15510D01*
G01X7663Y15541D01*
G01X7641Y15572D01*
G01X7618Y15603D01*
G01X7594Y15633D01*
G01X7570Y15663D01*
G01X7545Y15693D01*
G01X7520Y15722D01*
G01X7494Y15751D01*
G01X7467Y15779D01*
G01X7440Y15807D01*
G01X7412Y15834D01*
G01X7384Y15861D01*
G01X7355Y15888D01*
G01X7326Y15914D01*
G01X7296Y15939D01*
G01X7265Y15964D01*
G01X7234Y15989D01*
G01X7203Y16013D01*
G01X7171Y16037D01*
G01X7138Y16060D01*
G01X7105Y16082D01*
G01X7072Y16105D01*
G01X7038Y16126D01*
G01X7003Y16147D01*
G01X6969Y16167D01*
G01X6933Y16187D01*
G01X6898Y16207D01*
G01X6862Y16225D01*
G01X6825Y16244D01*
G01X6788Y16261D01*
G01X6751Y16278D01*
G01X6714Y16295D01*
G01X6676Y16310D01*
G01X6638Y16326D01*
G01X6599Y16340D01*
G01X6560Y16354D01*
G01X6521Y16368D01*
G01X6482Y16380D01*
G01X6442Y16392D01*
G01X6402Y16404D01*
G01X6362Y16415D01*
G01X6322Y16425D01*
G01X6281Y16434D01*
G01X6241Y16443D01*
G01X6200Y16452D01*
G01X6159Y16459D01*
G01X6117Y16466D01*
G01X6076Y16473D01*
G01X6034Y16478D01*
G01X5993Y16483D01*
G01X5951Y16488D01*
G01X5909Y16491D01*
G01X5867Y16494D01*
G01X5825Y16496D01*
G01X5784Y16498D01*
G01X5742Y16499D01*
G01X5700Y16500D01*
G04 end of side 4*
G01X0Y16500D01*
G04 end of side 5*
G01X0Y19000D01*
G04 end of side 6*
G01X0Y19039D01*
G01X1Y19078D01*
G01X2Y19117D01*
G01X4Y19156D01*
G01X7Y19196D01*
G01X11Y19235D01*
G01X15Y19274D01*
G01X19Y19313D01*
G01X24Y19352D01*
G01X30Y19391D01*
G01X37Y19429D01*
G01X44Y19468D01*
G01X51Y19506D01*
G01X60Y19545D01*
G01X69Y19583D01*
G01X78Y19621D01*
G01X88Y19659D01*
G01X99Y19697D01*
G01X110Y19735D01*
G01X122Y19772D01*
G01X134Y19809D01*
G01X147Y19846D01*
G01X161Y19883D01*
G01X175Y19920D01*
G01X190Y19956D01*
G01X205Y19992D01*
G01X221Y20028D01*
G01X237Y20064D01*
G01X254Y20099D01*
G01X272Y20134D01*
G01X290Y20169D01*
G01X309Y20204D01*
G01X328Y20238D01*
G01X348Y20272D01*
G01X368Y20306D01*
G01X389Y20339D01*
G01X410Y20372D01*
G01X432Y20405D01*
G01X454Y20437D01*
G01X477Y20469D01*
G01X500Y20501D01*
G01X524Y20532D01*
G01X548Y20563D01*
G01X573Y20593D01*
G01X598Y20623D01*
G01X624Y20653D01*
G01X650Y20682D01*
G01X677Y20711D01*
G01X704Y20739D01*
G01X732Y20767D01*
G01X760Y20795D01*
G01X788Y20822D01*
G01X817Y20849D01*
G01X846Y20875D01*
G01X876Y20901D01*
G01X906Y20926D01*
G01X936Y20951D01*
G01X967Y20975D01*
G01X998Y20999D01*
G01X1030Y21022D01*
G01X1062Y21045D01*
G01X1094Y21067D01*
G01X1127Y21089D01*
G01X1160Y21110D01*
G01X1193Y21131D01*
G01X1227Y21151D01*
G01X1261Y21171D01*
G01X1295Y21190D01*
G01X1330Y21209D01*
G01X1365Y21227D01*
G01X1400Y21245D01*
G01X1435Y21262D01*
G01X1471Y21278D01*
G01X1507Y21294D01*
G01X1543Y21309D01*
G01X1579Y21324D01*
G01X1616Y21338D01*
G01X1653Y21352D01*
G01X1690Y21365D01*
G01X1727Y21377D01*
G01X1764Y21389D01*
G01X1802Y21400D01*
G01X1840Y21411D01*
G01X1878Y21421D01*
G01X1916Y21430D01*
G01X1954Y21439D01*
G01X1993Y21448D01*
G01X2031Y21455D01*
G01X2070Y21462D01*
G01X2108Y21469D01*
G01X2147Y21475D01*
G01X2186Y21480D01*
G01X2225Y21484D01*
G01X2264Y21488D01*
G01X2303Y21492D01*
G01X2343Y21495D01*
G01X2382Y21497D01*
G01X2421Y21498D01*
G01X2460Y21499D01*
G01X2500Y21500D01*
G04 end of side 7*
G01X5700Y21500D01*
G04 end of side 8*
G01X29000Y21500D01*
G04 end of side 9*
G01X29041Y21499D01*
G01X29082Y21499D01*
G01X29123Y21498D01*
G01X29165Y21497D01*
G01X29206Y21496D01*
G01X29247Y21494D01*
G01X29289Y21492D01*
G01X29330Y21490D01*
G01X29371Y21487D01*
G01X29412Y21484D01*
G01X29454Y21481D01*
G01X29495Y21477D01*
G01X29536Y21474D01*
G01X29577Y21469D01*
G01X29618Y21465D01*
G01X29659Y21460D01*
G01X29700Y21455D01*
G01X29741Y21450D01*
G01X29782Y21444D01*
G01X29822Y21438D01*
G01X29863Y21432D01*
G01X29904Y21425D01*
G01X29945Y21418D01*
G01X29985Y21411D01*
G01X30026Y21404D01*
G01X30066Y21396D01*
G01X30106Y21388D01*
G01X30147Y21379D01*
G01X30187Y21371D01*
G01X30227Y21362D01*
G01X30267Y21353D01*
G01X30307Y21343D01*
G01X30347Y21333D01*
G01X30387Y21323D01*
G01X30426Y21312D01*
G01X30466Y21302D01*
G01X30505Y21291D01*
G01X30545Y21279D01*
G01X30584Y21268D01*
G01X30623Y21256D01*
G01X30662Y21243D01*
G01X30701Y21231D01*
G01X30740Y21218D01*
G01X30778Y21205D01*
G01X30817Y21192D01*
G01X30855Y21178D01*
G01X30894Y21164D01*
G01X30932Y21150D01*
G01X30970Y21135D01*
G01X31008Y21120D01*
G01X31046Y21105D01*
G01X31083Y21090D01*
G01X31121Y21074D01*
G01X31158Y21058D01*
G01X31195Y21042D01*
G01X31233Y21026D01*
G01X31269Y21009D01*
G01X31306Y20992D01*
G01X31343Y20975D01*
G01X31379Y20957D01*
G01X31416Y20939D01*
G01X31452Y20921D01*
G01X31488Y20903D01*
G01X31523Y20884D01*
G01X31559Y20865D01*
G01X31594Y20846D01*
G01X31630Y20827D01*
G01X31665Y20807D01*
G01X31700Y20787D01*
G01X31734Y20767D01*
G01X31769Y20746D01*
G01X31803Y20726D01*
G01X31837Y20705D01*
G01X31871Y20683D01*
G01X31905Y20662D01*
G01X31938Y20640D01*
G01X31972Y20618D01*
G01X32005Y20596D01*
G01X32038Y20573D01*
G01X32071Y20551D01*
G01X32103Y20528D01*
G01X32135Y20504D01*
G01X32167Y20481D01*
G01X32199Y20457D01*
G01X32231Y20433D01*
G01X32262Y20409D01*
G01X32294Y20385D01*
G01X32325Y20360D01*
G01X32355Y20335D01*
G01X32386Y20310D01*
G01X32416Y20285D01*
G01X32446Y20259D01*
G01X32476Y20234D01*
G01X32506Y20208D01*
G01X32535Y20181D01*
G01X32564Y20155D01*
G01X32593Y20128D01*
G01X32622Y20102D01*
G01X32650Y20075D01*
G01X32678Y20047D01*
G01X32706Y20020D01*
G01X32734Y19992D01*
G01X32761Y19964D01*
G01X32788Y19936D01*
G01X32815Y19908D01*
G01X32842Y19879D01*
G01X32868Y19851D01*
G01X32894Y19822D01*
G01X32920Y19793D01*
G01X32945Y19763D01*
G01X32970Y19734D01*
G01X32995Y19704D01*
G01X33020Y19675D01*
G01X33045Y19645D01*
G01X33069Y19614D01*
G01X33093Y19584D01*
G01X33116Y19553D01*
G01X33140Y19523D01*
G01X33163Y19492D01*
G01X33185Y19461D01*
G01X33208Y19430D01*
G01X33230Y19398D01*
G01X33252Y19367D01*
G01X33273Y19335D01*
G01X33295Y19303D01*
G01X33316Y19271D01*
G01X33337Y19239D01*
G01X33357Y19206D01*
G01X33377Y19174D01*
G01X33397Y19141D01*
G01X33416Y19108D01*
G01X33436Y19076D01*
G01X33455Y19042D01*
G01X33473Y19009D01*
G01X33491Y18976D01*
G01X33509Y18942D01*
G01X33527Y18909D01*
G01X33545Y18875D01*
G01X33562Y18841D01*
G01X33578Y18807D01*
G01X33595Y18773D01*
G01X33611Y18739D01*
G01X33627Y18704D01*
G01X33642Y18670D01*
G01X33657Y18635D01*
G01X33672Y18601D01*
G01X33687Y18566D01*
G01X33701Y18531D01*
G01X33715Y18496D01*
G01X33729Y18461D01*
G01X33742Y18425D01*
G01X33755Y18390D01*
G01X33767Y18355D01*
G01X33780Y18319D01*
G01X33792Y18284D01*
G01X33803Y18248D01*
G01X33815Y18212D01*
G01X33826Y18176D01*
G01X33836Y18140D01*
G01X33847Y18104D01*
G01X33856Y18068D01*
G01X33866Y18032D01*
G01X33875Y17996D01*
G01X33884Y17959D01*
G01X33893Y17923D01*
G01X33901Y17887D01*
G01X33909Y17850D01*
G01X33917Y17813D01*
G01X33924Y17777D01*
G01X33931Y17740D01*
G01X33938Y17703D01*
G01X33944Y17667D01*
G01X33950Y17630D01*
G01X33956Y17593D01*
G01X33961Y17556D01*
G01X33966Y17519D01*
G01X33971Y17482D01*
G01X33975Y17445D01*
G01X33979Y17408D01*
G01X33982Y17371D01*
G01X33986Y17334D01*
G01X33989Y17297D01*
G01X33991Y17260D01*
G01X33993Y17223D01*
G01X33995Y17185D01*
G01X33997Y17148D01*
G01X33998Y17111D01*
G01X33999Y17074D01*
G01X33999Y17037D01*
G01X34000Y17000D01*
G04 end of side 10*
G01X34000Y4300D01*
G04 end of side 11*
G01X33999Y4260D01*
G01X33999Y4220D01*
G01X33998Y4180D01*
G01X33997Y4141D01*
G01X33995Y4101D01*
G01X33993Y4061D01*
G01X33991Y4022D01*
G01X33988Y3982D01*
G01X33985Y3942D01*
G01X33982Y3903D01*
G01X33978Y3863D01*
G01X33974Y3824D01*
G01X33969Y3784D01*
G01X33964Y3745D01*
G01X33959Y3705D01*
G01X33954Y3666D01*
G01X33948Y3627D01*
G01X33942Y3588D01*
G01X33935Y3548D01*
G01X33928Y3509D01*
G01X33921Y3470D01*
G01X33913Y3431D01*
G01X33905Y3393D01*
G01X33897Y3354D01*
G01X33888Y3315D01*
G01X33879Y3276D01*
G01X33869Y3238D01*
G01X33860Y3199D01*
G01X33850Y3161D01*
G01X33839Y3123D01*
G01X33828Y3085D01*
G01X33817Y3047D01*
G01X33806Y3009D01*
G01X33794Y2971D01*
G01X33782Y2933D01*
G01X33769Y2895D01*
G01X33756Y2858D01*
G01X33743Y2821D01*
G01X33730Y2783D01*
G01X33716Y2746D01*
G01X33702Y2709D01*
G01X33687Y2672D01*
G01X33672Y2636D01*
G01X33657Y2599D01*
G01X33642Y2563D01*
G01X33626Y2526D01*
G01X33610Y2490D01*
G01X33593Y2454D01*
G01X33576Y2418D01*
G01X33559Y2383D01*
G01X33542Y2347D01*
G01X33524Y2312D01*
G01X33506Y2277D01*
G01X33487Y2242D01*
G01X33469Y2207D01*
G01X33450Y2172D01*
G01X33430Y2138D01*
G01X33411Y2104D01*
G01X33391Y2070D01*
G01X33370Y2036D01*
G01X33350Y2002D01*
G01X33329Y1969D01*
G01X33308Y1935D01*
G01X33286Y1902D01*
G01X33264Y1869D01*
G01X33242Y1837D01*
G01X33220Y1804D01*
G01X33197Y1772D01*
G01X33174Y1740D01*
G01X33151Y1708D01*
G01X33128Y1677D01*
G01X33104Y1645D01*
G01X33080Y1614D01*
G01X33055Y1583D01*
G01X33031Y1552D01*
G01X33006Y1522D01*
G01X32981Y1492D01*
G01X32955Y1462D01*
G01X32929Y1432D01*
G01X32903Y1403D01*
G01X32877Y1373D01*
G01X32851Y1344D01*
G01X32824Y1316D01*
G01X32797Y1287D01*
G01X32769Y1259D01*
G01X32742Y1231D01*
G01X32714Y1203D01*
G01X32686Y1176D01*
G01X32658Y1149D01*
G01X32629Y1122D01*
G01X32600Y1095D01*
G01X32571Y1069D01*
G01X32542Y1043D01*
G01X32512Y1017D01*
G01X32483Y991D01*
G01X32453Y966D01*
G01X32422Y941D01*
G01X32392Y916D01*
G01X32361Y892D01*
G01X32331Y868D01*
G01X32299Y844D01*
G01X32268Y821D01*
G01X32237Y798D01*
G01X32205Y775D01*
G01X32173Y752D01*
G01X32141Y730D01*
G01X32109Y708D01*
G01X32076Y686D01*
G01X32043Y665D01*
G01X32011Y644D01*
G01X31977Y623D01*
G01X31944Y602D01*
G01X31911Y582D01*
G01X31877Y562D01*
G01X31843Y543D01*
G01X31809Y524D01*
G01X31775Y505D01*
G01X31741Y486D01*
G01X31706Y468D01*
G01X31672Y450D01*
G01X31637Y433D01*
G01X31602Y416D01*
G01X31567Y399D01*
G01X31531Y382D01*
G01X31496Y366D01*
G01X31460Y350D01*
G01X31425Y334D01*
G01X31389Y319D01*
G01X31353Y304D01*
G01X31317Y290D01*
G01X31280Y276D01*
G01X31244Y262D01*
G01X31208Y248D01*
G01X31171Y235D01*
G01X31134Y222D01*
G01X31097Y210D01*
G01X31060Y198D01*
G01X31023Y186D01*
G01X30986Y175D01*
G01X30949Y164D01*
G01X30912Y153D01*
G01X30874Y143D01*
G01X30836Y133D01*
G01X30799Y123D01*
G01X30761Y114D01*
G01X30723Y105D01*
G01X30685Y96D01*
G01X30647Y88D01*
G01X30609Y80D01*
G01X30571Y73D01*
G01X30533Y66D01*
G01X30495Y59D01*
G01X30457Y52D01*
G01X30418Y46D01*
G01X30380Y41D01*
G01X30341Y35D01*
G01X30303Y30D01*
G01X30264Y26D01*
G01X30226Y22D01*
G01X30187Y18D01*
G01X30148Y14D01*
G01X30110Y11D01*
G01X30071Y8D01*
G01X30032Y6D01*
G01X29993Y4D01*
G01X29955Y2D01*
G01X29916Y1D01*
G01X29877Y0D01*
G01X29838Y0D01*
G01X29800Y0D01*
G04 end of side 12*
G01X5700Y0D01*

G04 -------------- Draw Parts, Pads, Traces, Vias and Text (positive)*
%LPD*%
G04 Draw part Q1*
G54D11*
G01X24200Y6200D03*
G01X24200Y7200D03*
G01X24200Y8200D03*
G04 Draw part Q3*
G01X22300Y10000D03*
G01X21300Y10000D03*
G01X20300Y10000D03*
G04 Draw part Q2*
G01X22000Y8000D03*
G01X21000Y8000D03*
G01X20000Y8000D03*
G04 Draw part Q4*
G01X22300Y11900D03*
G01X21300Y11900D03*
G01X20300Y11900D03*
G04 Draw part U1*
G01X28000Y6500D03*
G01X27000Y6500D03*
G01X26000Y6500D03*
G04 Draw part P9*
G54D12*
G01X7500Y700D03*
G54D13*
G01X7500Y1700D03*
G01X8500Y700D03*
G01X8500Y1700D03*
G01X9500Y700D03*
G01X9500Y1700D03*
G01X10500Y700D03*
G01X10500Y1700D03*
G01X11500Y700D03*
G01X11500Y1700D03*
G01X12500Y700D03*
G01X12500Y1700D03*
G01X13500Y700D03*
G01X13500Y1700D03*
G01X14500Y700D03*
G01X14500Y1700D03*
G01X15500Y700D03*
G01X15500Y1700D03*
G01X16500Y700D03*
G01X16500Y1700D03*
G01X17500Y700D03*
G01X17500Y1700D03*
G01X18500Y700D03*
G01X18500Y1700D03*
G01X19500Y700D03*
G01X19500Y1700D03*
G01X20500Y700D03*
G01X20500Y1700D03*
G01X21500Y700D03*
G01X21500Y1700D03*
G01X22500Y700D03*
G01X22500Y1700D03*
G01X23500Y700D03*
G01X23500Y1700D03*
G01X24500Y700D03*
G01X24500Y1700D03*
G01X25500Y700D03*
G01X25500Y1700D03*
G01X26500Y700D03*
G01X26500Y1700D03*
G01X27500Y700D03*
G01X27500Y1700D03*
G01X28500Y700D03*
G01X28500Y1700D03*
G01X29500Y700D03*
G01X29500Y1700D03*
G04 Draw part P8*
G54D12*
G01X7500Y19700D03*
G54D13*
G01X7500Y20700D03*
G01X8500Y19700D03*
G01X8500Y20700D03*
G01X9500Y19700D03*
G01X9500Y20700D03*
G01X10500Y19700D03*
G01X10500Y20700D03*
G01X11500Y19700D03*
G01X11500Y20700D03*
G01X12500Y19700D03*
G01X12500Y20700D03*
G01X13500Y19700D03*
G01X13500Y20700D03*
G01X14500Y19700D03*
G01X14500Y20700D03*
G01X15500Y19700D03*
G01X15500Y20700D03*
G01X16500Y19700D03*
G01X16500Y20700D03*
G01X17500Y19700D03*
G01X17500Y20700D03*
G01X18500Y19700D03*
G01X18500Y20700D03*
G01X19500Y19700D03*
G01X19500Y20700D03*
G01X20500Y19700D03*
G01X20500Y20700D03*
G01X21500Y19700D03*
G01X21500Y20700D03*
G01X22500Y19700D03*
G01X22500Y20700D03*
G01X23500Y19700D03*
G01X23500Y20700D03*
G01X24500Y19700D03*
G01X24500Y20700D03*
G01X25500Y19700D03*
G01X25500Y20700D03*
G01X26500Y19700D03*
G01X26500Y20700D03*
G01X27500Y19700D03*
G01X27500Y20700D03*
G01X28500Y19700D03*
G01X28500Y20700D03*
G01X29500Y19700D03*
G01X29500Y20700D03*
G04 Draw part D1*
G54D14*
G01X15200Y8300D03*
G01X18250Y8300D03*
G04 Draw part D3*
G01X15200Y10700D03*
G01X18250Y10700D03*
G04 Draw part D2*
G01X15200Y9500D03*
G01X18250Y9500D03*
G04 Draw part D4*
G01X15200Y11900D03*
G01X18250Y11900D03*
G04 Draw part D5*
G01X15200Y13100D03*
G01X18250Y13100D03*
G04 Draw part C4*
G04 Draw part C2*
G04 Draw part C1*
G04 Draw part C3*
G54D15*
G01X28010Y3600D03*
G01X28800Y3600D03*
G04 Draw part J12*
G54D16*
G01X6800Y4100D03*
G54D17*
G01X6800Y3100D03*
G04 Draw part Q6*
G54D11*
G01X15800Y17800D03*
G01X15800Y16800D03*
G01X15800Y15800D03*
G04 Draw part D6*
G54D14*
G01X15200Y14300D03*
G01X18250Y14300D03*
G04 Draw part Q5*
G54D11*
G01X24200Y9800D03*
G01X24200Y10800D03*
G01X24200Y11800D03*
G04 Draw part D7*
G54D12*
G01X10000Y18000D03*
G54D13*
G01X11000Y18000D03*
G01X12000Y18000D03*
G01X13000Y18000D03*
G04 Draw part J11*
G54D16*
G01X1900Y20400D03*
G54D17*
G01X2900Y20400D03*
G04 Draw part C5*
G04 Draw part C6*
G04 Draw part C7*
G04 Draw part J13*
G54D16*
G01X20500Y4400D03*
G54D17*
G01X20500Y3400D03*
G04 Draw part C8*
G04 Draw part C9*
G04 Draw part J14*
G54D16*
G01X19700Y5300D03*
G54D17*
G01X20700Y5300D03*
G04 Draw part C10*
G04 Draw part C11*
G04 Draw part R20*
G04 Draw part R19*
G04 Draw part R7*
G04 Draw part R8*
G04 Draw part R9*
G04 Draw part R10*
G04 Draw part R11*
G04 Draw part R12*
G04 Draw part R16*
G04 Draw part R17*
G04 Draw part R18*
G04 Draw part R13*
G04 Draw part R14*
G04 Draw part R15*
G54D18*
G01X25300Y4800D03*
G01X25969Y4800D03*
G04 Draw part U2*
G04 Draw part U3*
G04 Draw part U4*
G04 Draw part U5*
G04 Draw part J1*
G54D19*
G01X12100Y7100D03*
G54D20*
G01X12100Y8750D03*
G01X12100Y10400D03*
G01X12100Y12050D03*
G01X12100Y13700D03*
G01X12100Y15350D03*
G01X13750Y7100D03*
G01X13750Y8750D03*
G01X13750Y10400D03*
G01X13750Y12050D03*
G01X13750Y13700D03*
G01X13750Y15350D03*
G54D21*
G01X9230Y7100D03*
G01X9230Y15350D03*
G04 Draw part J7*
G54D22*
G01X27700Y9100D03*
G54D23*
G01X27700Y11600D03*
G04 Draw part J3*
G04 Draw part J4*
G04 Draw part J5*
G04 Draw part R22*
G54D24*
G01X24800Y15900D03*
G01X24800Y15230D03*
G04 Draw part C13*
G01X24800Y16900D03*
G01X24800Y17569D03*
G04 Draw part D8*
G54D11*
G01X19900Y13700D03*
G01X21900Y13700D03*
G04 Draw part U8*
G54D13*
G01X25800Y17500D03*
G01X25800Y16500D03*
G01X25800Y15500D03*
G54D12*
G01X23800Y18000D03*
G54D13*
G01X23800Y17000D03*
G01X23800Y16000D03*
G01X23800Y15000D03*
G04 Draw part C12*
G04 Draw part L1*
G01X19900Y18100D03*
G01X19900Y15900D03*
G04 Draw part C14*

G04 Draw traces*
G54D25*
G01X31100Y17400D03*
G01X31900Y4200D03*
G01X30200Y2200D03*
G01X3700Y17400D03*
G01X6950Y17400D03*
G01X9200Y4000D03*
G01X12250Y3000D03*
G01X22700Y5900D03*
G01X23450Y5150D03*
G01X25050Y3600D03*
G01X14450Y6200D03*
G01X10000Y4900D03*
G01X10000Y4900D03*
G01X7300Y16700D03*
G01X26600Y2500D03*
G01X23050Y2650D03*
G01X20000Y3800D03*
G01X14150Y2900D03*
G01X25200Y5300D03*
G01X25600Y3450D03*
G01X28100Y14850D03*
G01X9950Y2550D03*
G01X12000Y5800D03*
G01X16450Y5750D03*
G01X19950Y2850D03*
G01X18800Y6400D03*
G01X3050Y17350D03*
G01X4300Y20400D03*
G01X9300Y18700D03*
G01X23700Y2650D03*
G01X26100Y12400D03*
G01X26200Y5350D03*
G01X20950Y6200D03*
G01X23000Y6200D03*
G01X18250Y3300D03*
G01X8150Y17050D03*
G01X13650Y5550D03*
G01X26500Y10450D03*
G01X18050Y4300D03*
G01X30800Y3550D03*
G01X30800Y5100D03*
G01X30900Y15050D03*
G01X30900Y16150D03*
G01X30900Y9150D03*
G01X30900Y10700D03*
G01X30800Y5100D03*
G01X30900Y9150D03*
G01X30900Y15050D03*
G01X30900Y10700D03*
G01X22500Y3000D03*
G01X31550Y11000D03*
G01X31100Y5500D03*
G01X31100Y1600D03*

G04 Draw Text*

G04 Draw solder mask cutouts*
M00*
M02*
