;Holesize 1 =   45.0 PLATED MILS
;Holesize 2 =   28.0 PLATED MILS
;Holesize 3 =   35.0 PLATED MILS
;Holesize 4 =   30.0 PLATED MILS
;Holesize 5 =  120.0 PLATED MILS
;Holesize 6 =   14.0 PLATED MILS
M48
INCH,00.0000
T01C0.045
T02C0.028
T03C0.035
T04C0.030
T05C0.120
T06C0.014
%
G05
G90
T01
X024000Y009000
X025000Y009000
X026000Y009000
X024500Y012000
X023500Y012000
X022500Y012000
X029000Y009000
X030000Y009000
X031000Y009000
X029500Y012000
X028500Y012000
X027500Y012000
X010000Y005500
X011000Y005500
X012000Y005500
X024000Y005000
X026000Y005000
X024500Y016000
X022500Y016000
X029000Y005000
X031000Y005000
X029500Y016000
X027500Y016000
X032500Y011000
X032500Y012000
T02
X012000Y010500
X013000Y010500
X014000Y010500
X015000Y010500
X015000Y013500
X014000Y013500
X013000Y013500
X012000Y013500
X007500Y000700
X007500Y001700
X008500Y000700
X008500Y001700
X009500Y000700
X009500Y001700
X010500Y000700
X010500Y001700
X011500Y000700
X011500Y001700
X012500Y000700
X012500Y001700
X013500Y000700
X013500Y001700
X014500Y000700
X014500Y001700
X015500Y000700
X015500Y001700
X016500Y000700
X016500Y001700
X017500Y000700
X017500Y001700
X018500Y000700
X018500Y001700
X019500Y000700
X019500Y001700
X020500Y000700
X020500Y001700
X021500Y000700
X021500Y001700
X022500Y000700
X022500Y001700
X023500Y000700
X023500Y001700
X024500Y000700
X024500Y001700
X025500Y000700
X025500Y001700
X026500Y000700
X026500Y001700
X027500Y000700
X027500Y001700
X028500Y000700
X028500Y001700
X029500Y000700
X029500Y001700
X007500Y019700
X007500Y020700
X008500Y019700
X008500Y020700
X009500Y019700
X009500Y020700
X010500Y019700
X010500Y020700
X011500Y019700
X011500Y020700
X012500Y019700
X012500Y020700
X013500Y019700
X013500Y020700
X014500Y019700
X014500Y020700
X015500Y019700
X015500Y020700
X016500Y019700
X016500Y020700
X017500Y019700
X017500Y020700
X018500Y019700
X018500Y020700
X019500Y019700
X019500Y020700
X020500Y019700
X020500Y020700
X021500Y019700
X021500Y020700
X022500Y019700
X022500Y020700
X023500Y019700
X023500Y020700
X024500Y019700
X024500Y020700
X025500Y019700
X025500Y020700
X026500Y019700
X026500Y020700
X027500Y019700
X027500Y020700
X028500Y019700
X028500Y020700
X029500Y019700
X029500Y020700
X020000Y010000
X020000Y009000
X020000Y008000
X020000Y007000
X018500Y010000
X018500Y009000
X018500Y008000
X018500Y007000
X021500Y004500
X021500Y003500
X020500Y004500
X020500Y003500
X019500Y004500
X019500Y003500
X018500Y004500
X018500Y003500
X026500Y007500
X022500Y007500
X021000Y013500
X025000Y013500
X032000Y007500
X028000Y007500
X026500Y013500
X030500Y013500
X015500Y014500
X011500Y014500
X015500Y016500
X011500Y016500
X010000Y011710
X010000Y012500
X011790Y003500
X011000Y003500
T03
X017000Y004000
X016000Y004000
X015000Y004000
X014000Y004000
T04
X013500Y007000
X013500Y006000
X010000Y007500
X012000Y007500
T05
X031500Y019000
X031500Y002500
T06
X017600Y011400
X023200Y007500
X023200Y006100
M30
