;Holesize 1 =   45.0 PLATED MILS
;Holesize 2 =   40.0 PLATED MILS
;Holesize 3 =   35.0 PLATED MILS
;Holesize 4 =   28.0 PLATED MILS
;Holesize 5 =   39.0 PLATED MILS
;Holesize 6 =   70.0 PLATED MILS
;Holesize 7 =  118.0 PLATED MILS
;Holesize 8 =   14.0 PLATED MILS
M48
INCH,00.0000
T01C0.045
T02C0.040
T03C0.035
T04C0.028
T05C0.039
T06C0.070
T07C0.118
T08C0.014
%
G05
G90
T01
X024200Y006200
X024200Y007200
X024200Y008200
X022300Y010000
X021300Y010000
X020300Y010000
X022000Y008000
X021000Y008000
X020000Y008000
X022300Y011900
X021300Y011900
X020300Y011900
X028000Y006500
X027000Y006500
X026000Y006500
X015800Y017800
X015800Y016800
X015800Y015800
X024200Y009800
X024200Y010800
X024200Y011800
X019900Y013700
X021900Y013700
T02
X007500Y000700
X007500Y001700
X008500Y000700
X008500Y001700
X009500Y000700
X009500Y001700
X010500Y000700
X010500Y001700
X011500Y000700
X011500Y001700
X012500Y000700
X012500Y001700
X013500Y000700
X013500Y001700
X014500Y000700
X014500Y001700
X015500Y000700
X015500Y001700
X016500Y000700
X016500Y001700
X017500Y000700
X017500Y001700
X018500Y000700
X018500Y001700
X019500Y000700
X019500Y001700
X020500Y000700
X020500Y001700
X021500Y000700
X021500Y001700
X022500Y000700
X022500Y001700
X023500Y000700
X023500Y001700
X024500Y000700
X024500Y001700
X025500Y000700
X025500Y001700
X026500Y000700
X026500Y001700
X027500Y000700
X027500Y001700
X028500Y000700
X028500Y001700
X029500Y000700
X029500Y001700
X007500Y019700
X007500Y020700
X008500Y019700
X008500Y020700
X009500Y019700
X009500Y020700
X010500Y019700
X010500Y020700
X011500Y019700
X011500Y020700
X012500Y019700
X012500Y020700
X013500Y019700
X013500Y020700
X014500Y019700
X014500Y020700
X015500Y019700
X015500Y020700
X016500Y019700
X016500Y020700
X017500Y019700
X017500Y020700
X018500Y019700
X018500Y020700
X019500Y019700
X019500Y020700
X020500Y019700
X020500Y020700
X021500Y019700
X021500Y020700
X022500Y019700
X022500Y020700
X023500Y019700
X023500Y020700
X024500Y019700
X024500Y020700
X025500Y019700
X025500Y020700
X026500Y019700
X026500Y020700
X027500Y019700
X027500Y020700
X028500Y019700
X028500Y020700
X029500Y019700
X029500Y020700
X025800Y017500
X025800Y016500
X025800Y015500
X023800Y018000
X023800Y017000
X023800Y016000
X023800Y015000
T03
X015200Y008300
X018250Y008300
X015200Y010700
X018250Y010700
X015200Y009500
X018250Y009500
X015200Y011900
X018250Y011900
X015200Y013100
X018250Y013100
X015200Y014300
X018250Y014300
X010000Y018000
X011000Y018000
X012000Y018000
X013000Y018000
T04
X028010Y003600
X028800Y003600
T05
X006800Y004100
X006800Y003100
X001900Y020400
X002900Y020400
X020500Y004400
X020500Y003400
X019700Y005300
X020700Y005300
T06
X012100Y007100
X012100Y008750
X012100Y010400
X012100Y012050
X012100Y013700
X012100Y015350
X013750Y007100
X013750Y008750
X013750Y010400
X013750Y012050
X013750Y013700
X013750Y015350
X027700Y009100
X027700Y011600
X019900Y018100
X019900Y015900
T07
X009230Y007100
X009230Y015350
T08
X031100Y017400
X031900Y004200
X030200Y002200
X003700Y017400
X006950Y017400
X009200Y004000
X012250Y003000
X022700Y005900
X023450Y005150
X025050Y003600
X014450Y006200
X010000Y004900
X010000Y004900
X007300Y016700
X026600Y002500
X023050Y002650
X020000Y003800
X014150Y002900
X025200Y005300
X025600Y003450
X028100Y014850
X009950Y002550
X012000Y005800
X016450Y005750
X019950Y002850
X018800Y006400
X003050Y017350
X004300Y020400
X009300Y018700
X023700Y002650
X026100Y012400
X026200Y005350
X020950Y006200
X023000Y006200
X018250Y003300
X008150Y017050
X013650Y005550
X026500Y010450
X018050Y004300
X030800Y003550
X030800Y005100
X030900Y015050
X030900Y016150
X030900Y009150
X030900Y010700
X030800Y005100
X030900Y009150
X030900Y015050
X030900Y010700
X022500Y003000
X031550Y011000
X031100Y005500
X031100Y001600
M30
