G04 FreePCB version 1.359*
G04 C:\Users\Spark\Desktop\GitHub\Main\electronics\Cape_of_Stomping\CAM\top_silk.grb*
G04 top silk layer *
G04 Scale: 100 percent, Rotated: No, Reflected: No *
%FSLAX24Y24*%
%MOIN*%
%LN top silk *%
G04 Rounded Rectangle Macro, params: W/2, H/2, R *
%AMRNDREC*
21,1,$1+$1,$2+$2-$3-$3,0,0,0*
21,1,$1+$1-$3-$3,$2+$2,0,0,0*
1,1,$3+$3,$1-$3,$2-$3*
1,1,$3+$3,$3-$1,$2-$3*
1,1,$3+$3,$1-$3,$3-$2*
1,1,$3+$3,$3-$1,$3-$2*%
G04 Rectangular Thermal Macro, params: W/2, H/2, T/2 *
%AMRECTHERM*
$4=$3/2*
21,1,$1-$3,$2-$3,0-$1/2-$4,0-$2/2-$4,0*
21,1,$1-$3,$2-$3,0-$1/2-$4,$2/2+$4,0*
21,1,$1-$3,$2-$3,$1/2+$4,0-$2/2-$4,0*
21,1,$1-$3,$2-$3,$1/2+$4,$2/2+$4,0*%
%ADD10C,0.005000*%
%ADD11C,0.007000*%
%ADD12C,0.010000*%
G90*
G70D02*

G04 Step and Repeat for panelization *

G04 ----------------------- Draw board outline (positive)*
%LPD*%
G54D10*
G01X5700Y0D02*
G01X5700Y5000D01*
G04 end of side 1*
G01X5744Y5000D01*
G01X5788Y5001D01*
G01X5832Y5002D01*
G01X5876Y5005D01*
G01X5919Y5008D01*
G01X5963Y5011D01*
G01X6007Y5016D01*
G01X6051Y5021D01*
G01X6094Y5026D01*
G01X6137Y5032D01*
G01X6181Y5039D01*
G01X6224Y5047D01*
G01X6266Y5055D01*
G01X6309Y5064D01*
G01X6351Y5073D01*
G01X6393Y5083D01*
G01X6435Y5094D01*
G01X6477Y5105D01*
G01X6518Y5117D01*
G01X6559Y5130D01*
G01X6600Y5143D01*
G01X6640Y5157D01*
G01X6680Y5171D01*
G01X6720Y5186D01*
G01X6759Y5202D01*
G01X6798Y5218D01*
G01X6837Y5235D01*
G01X6875Y5252D01*
G01X6912Y5270D01*
G01X6950Y5289D01*
G01X6986Y5308D01*
G01X7023Y5327D01*
G01X7059Y5347D01*
G01X7094Y5368D01*
G01X7129Y5389D01*
G01X7163Y5411D01*
G01X7197Y5433D01*
G01X7230Y5456D01*
G01X7262Y5479D01*
G01X7294Y5503D01*
G01X7326Y5527D01*
G01X7357Y5551D01*
G01X7387Y5576D01*
G01X7417Y5602D01*
G01X7446Y5628D01*
G01X7474Y5654D01*
G01X7502Y5681D01*
G01X7529Y5708D01*
G01X7555Y5736D01*
G01X7581Y5764D01*
G01X7606Y5792D01*
G01X7630Y5821D01*
G01X7654Y5850D01*
G01X7677Y5880D01*
G01X7699Y5909D01*
G01X7720Y5940D01*
G01X7741Y5970D01*
G01X7761Y6001D01*
G01X7780Y6032D01*
G01X7798Y6063D01*
G01X7816Y6095D01*
G01X7833Y6127D01*
G01X7849Y6159D01*
G01X7864Y6191D01*
G01X7879Y6224D01*
G01X7892Y6256D01*
G01X7905Y6289D01*
G01X7917Y6323D01*
G01X7929Y6356D01*
G01X7939Y6389D01*
G01X7949Y6423D01*
G01X7957Y6457D01*
G01X7965Y6491D01*
G01X7973Y6525D01*
G01X7979Y6559D01*
G01X7984Y6593D01*
G01X7989Y6627D01*
G01X7993Y6662D01*
G01X7996Y6696D01*
G01X7998Y6731D01*
G01X7999Y6765D01*
G01X8000Y6800D01*
G04 end of side 2*
G01X8000Y14500D01*
G04 end of side 3*
G01X7999Y14536D01*
G01X7998Y14573D01*
G01X7996Y14609D01*
G01X7993Y14645D01*
G01X7990Y14682D01*
G01X7986Y14718D01*
G01X7981Y14755D01*
G01X7975Y14791D01*
G01X7968Y14827D01*
G01X7961Y14863D01*
G01X7953Y14899D01*
G01X7944Y14934D01*
G01X7935Y14970D01*
G01X7925Y15005D01*
G01X7914Y15041D01*
G01X7902Y15076D01*
G01X7890Y15111D01*
G01X7876Y15145D01*
G01X7862Y15180D01*
G01X7848Y15214D01*
G01X7832Y15248D01*
G01X7816Y15282D01*
G01X7800Y15315D01*
G01X7782Y15348D01*
G01X7764Y15381D01*
G01X7745Y15414D01*
G01X7725Y15446D01*
G01X7705Y15478D01*
G01X7684Y15510D01*
G01X7663Y15541D01*
G01X7641Y15572D01*
G01X7618Y15603D01*
G01X7594Y15633D01*
G01X7570Y15663D01*
G01X7545Y15693D01*
G01X7520Y15722D01*
G01X7494Y15751D01*
G01X7467Y15779D01*
G01X7440Y15807D01*
G01X7412Y15834D01*
G01X7384Y15861D01*
G01X7355Y15888D01*
G01X7326Y15914D01*
G01X7296Y15939D01*
G01X7265Y15964D01*
G01X7234Y15989D01*
G01X7203Y16013D01*
G01X7171Y16037D01*
G01X7138Y16060D01*
G01X7105Y16082D01*
G01X7072Y16105D01*
G01X7038Y16126D01*
G01X7003Y16147D01*
G01X6969Y16167D01*
G01X6933Y16187D01*
G01X6898Y16207D01*
G01X6862Y16225D01*
G01X6825Y16244D01*
G01X6788Y16261D01*
G01X6751Y16278D01*
G01X6714Y16295D01*
G01X6676Y16310D01*
G01X6638Y16326D01*
G01X6599Y16340D01*
G01X6560Y16354D01*
G01X6521Y16368D01*
G01X6482Y16380D01*
G01X6442Y16392D01*
G01X6402Y16404D01*
G01X6362Y16415D01*
G01X6322Y16425D01*
G01X6281Y16434D01*
G01X6241Y16443D01*
G01X6200Y16452D01*
G01X6159Y16459D01*
G01X6117Y16466D01*
G01X6076Y16473D01*
G01X6034Y16478D01*
G01X5993Y16483D01*
G01X5951Y16488D01*
G01X5909Y16491D01*
G01X5867Y16494D01*
G01X5825Y16496D01*
G01X5784Y16498D01*
G01X5742Y16499D01*
G01X5700Y16500D01*
G04 end of side 4*
G01X0Y16500D01*
G04 end of side 5*
G01X0Y19000D01*
G04 end of side 6*
G01X0Y19039D01*
G01X1Y19078D01*
G01X2Y19117D01*
G01X4Y19156D01*
G01X7Y19196D01*
G01X11Y19235D01*
G01X15Y19274D01*
G01X19Y19313D01*
G01X24Y19352D01*
G01X30Y19391D01*
G01X37Y19429D01*
G01X44Y19468D01*
G01X51Y19506D01*
G01X60Y19545D01*
G01X69Y19583D01*
G01X78Y19621D01*
G01X88Y19659D01*
G01X99Y19697D01*
G01X110Y19735D01*
G01X122Y19772D01*
G01X134Y19809D01*
G01X147Y19846D01*
G01X161Y19883D01*
G01X175Y19920D01*
G01X190Y19956D01*
G01X205Y19992D01*
G01X221Y20028D01*
G01X237Y20064D01*
G01X254Y20099D01*
G01X272Y20134D01*
G01X290Y20169D01*
G01X309Y20204D01*
G01X328Y20238D01*
G01X348Y20272D01*
G01X368Y20306D01*
G01X389Y20339D01*
G01X410Y20372D01*
G01X432Y20405D01*
G01X454Y20437D01*
G01X477Y20469D01*
G01X500Y20501D01*
G01X524Y20532D01*
G01X548Y20563D01*
G01X573Y20593D01*
G01X598Y20623D01*
G01X624Y20653D01*
G01X650Y20682D01*
G01X677Y20711D01*
G01X704Y20739D01*
G01X732Y20767D01*
G01X760Y20795D01*
G01X788Y20822D01*
G01X817Y20849D01*
G01X846Y20875D01*
G01X876Y20901D01*
G01X906Y20926D01*
G01X936Y20951D01*
G01X967Y20975D01*
G01X998Y20999D01*
G01X1030Y21022D01*
G01X1062Y21045D01*
G01X1094Y21067D01*
G01X1127Y21089D01*
G01X1160Y21110D01*
G01X1193Y21131D01*
G01X1227Y21151D01*
G01X1261Y21171D01*
G01X1295Y21190D01*
G01X1330Y21209D01*
G01X1365Y21227D01*
G01X1400Y21245D01*
G01X1435Y21262D01*
G01X1471Y21278D01*
G01X1507Y21294D01*
G01X1543Y21309D01*
G01X1579Y21324D01*
G01X1616Y21338D01*
G01X1653Y21352D01*
G01X1690Y21365D01*
G01X1727Y21377D01*
G01X1764Y21389D01*
G01X1802Y21400D01*
G01X1840Y21411D01*
G01X1878Y21421D01*
G01X1916Y21430D01*
G01X1954Y21439D01*
G01X1993Y21448D01*
G01X2031Y21455D01*
G01X2070Y21462D01*
G01X2108Y21469D01*
G01X2147Y21475D01*
G01X2186Y21480D01*
G01X2225Y21484D01*
G01X2264Y21488D01*
G01X2303Y21492D01*
G01X2343Y21495D01*
G01X2382Y21497D01*
G01X2421Y21498D01*
G01X2460Y21499D01*
G01X2500Y21500D01*
G04 end of side 7*
G01X5700Y21500D01*
G04 end of side 8*
G01X29000Y21500D01*
G04 end of side 9*
G01X29041Y21499D01*
G01X29082Y21499D01*
G01X29123Y21498D01*
G01X29165Y21497D01*
G01X29206Y21496D01*
G01X29247Y21494D01*
G01X29289Y21492D01*
G01X29330Y21490D01*
G01X29371Y21487D01*
G01X29412Y21484D01*
G01X29454Y21481D01*
G01X29495Y21477D01*
G01X29536Y21474D01*
G01X29577Y21469D01*
G01X29618Y21465D01*
G01X29659Y21460D01*
G01X29700Y21455D01*
G01X29741Y21450D01*
G01X29782Y21444D01*
G01X29822Y21438D01*
G01X29863Y21432D01*
G01X29904Y21425D01*
G01X29945Y21418D01*
G01X29985Y21411D01*
G01X30026Y21404D01*
G01X30066Y21396D01*
G01X30106Y21388D01*
G01X30147Y21379D01*
G01X30187Y21371D01*
G01X30227Y21362D01*
G01X30267Y21353D01*
G01X30307Y21343D01*
G01X30347Y21333D01*
G01X30387Y21323D01*
G01X30426Y21312D01*
G01X30466Y21302D01*
G01X30505Y21291D01*
G01X30545Y21279D01*
G01X30584Y21268D01*
G01X30623Y21256D01*
G01X30662Y21243D01*
G01X30701Y21231D01*
G01X30740Y21218D01*
G01X30778Y21205D01*
G01X30817Y21192D01*
G01X30855Y21178D01*
G01X30894Y21164D01*
G01X30932Y21150D01*
G01X30970Y21135D01*
G01X31008Y21120D01*
G01X31046Y21105D01*
G01X31083Y21090D01*
G01X31121Y21074D01*
G01X31158Y21058D01*
G01X31195Y21042D01*
G01X31233Y21026D01*
G01X31269Y21009D01*
G01X31306Y20992D01*
G01X31343Y20975D01*
G01X31379Y20957D01*
G01X31416Y20939D01*
G01X31452Y20921D01*
G01X31488Y20903D01*
G01X31523Y20884D01*
G01X31559Y20865D01*
G01X31594Y20846D01*
G01X31630Y20827D01*
G01X31665Y20807D01*
G01X31700Y20787D01*
G01X31734Y20767D01*
G01X31769Y20746D01*
G01X31803Y20726D01*
G01X31837Y20705D01*
G01X31871Y20683D01*
G01X31905Y20662D01*
G01X31938Y20640D01*
G01X31972Y20618D01*
G01X32005Y20596D01*
G01X32038Y20573D01*
G01X32071Y20551D01*
G01X32103Y20528D01*
G01X32135Y20504D01*
G01X32167Y20481D01*
G01X32199Y20457D01*
G01X32231Y20433D01*
G01X32262Y20409D01*
G01X32294Y20385D01*
G01X32325Y20360D01*
G01X32355Y20335D01*
G01X32386Y20310D01*
G01X32416Y20285D01*
G01X32446Y20259D01*
G01X32476Y20234D01*
G01X32506Y20208D01*
G01X32535Y20181D01*
G01X32564Y20155D01*
G01X32593Y20128D01*
G01X32622Y20102D01*
G01X32650Y20075D01*
G01X32678Y20047D01*
G01X32706Y20020D01*
G01X32734Y19992D01*
G01X32761Y19964D01*
G01X32788Y19936D01*
G01X32815Y19908D01*
G01X32842Y19879D01*
G01X32868Y19851D01*
G01X32894Y19822D01*
G01X32920Y19793D01*
G01X32945Y19763D01*
G01X32970Y19734D01*
G01X32995Y19704D01*
G01X33020Y19675D01*
G01X33045Y19645D01*
G01X33069Y19614D01*
G01X33093Y19584D01*
G01X33116Y19553D01*
G01X33140Y19523D01*
G01X33163Y19492D01*
G01X33185Y19461D01*
G01X33208Y19430D01*
G01X33230Y19398D01*
G01X33252Y19367D01*
G01X33273Y19335D01*
G01X33295Y19303D01*
G01X33316Y19271D01*
G01X33337Y19239D01*
G01X33357Y19206D01*
G01X33377Y19174D01*
G01X33397Y19141D01*
G01X33416Y19108D01*
G01X33436Y19076D01*
G01X33455Y19042D01*
G01X33473Y19009D01*
G01X33491Y18976D01*
G01X33509Y18942D01*
G01X33527Y18909D01*
G01X33545Y18875D01*
G01X33562Y18841D01*
G01X33578Y18807D01*
G01X33595Y18773D01*
G01X33611Y18739D01*
G01X33627Y18704D01*
G01X33642Y18670D01*
G01X33657Y18635D01*
G01X33672Y18601D01*
G01X33687Y18566D01*
G01X33701Y18531D01*
G01X33715Y18496D01*
G01X33729Y18461D01*
G01X33742Y18425D01*
G01X33755Y18390D01*
G01X33767Y18355D01*
G01X33780Y18319D01*
G01X33792Y18284D01*
G01X33803Y18248D01*
G01X33815Y18212D01*
G01X33826Y18176D01*
G01X33836Y18140D01*
G01X33847Y18104D01*
G01X33856Y18068D01*
G01X33866Y18032D01*
G01X33875Y17996D01*
G01X33884Y17959D01*
G01X33893Y17923D01*
G01X33901Y17887D01*
G01X33909Y17850D01*
G01X33917Y17813D01*
G01X33924Y17777D01*
G01X33931Y17740D01*
G01X33938Y17703D01*
G01X33944Y17667D01*
G01X33950Y17630D01*
G01X33956Y17593D01*
G01X33961Y17556D01*
G01X33966Y17519D01*
G01X33971Y17482D01*
G01X33975Y17445D01*
G01X33979Y17408D01*
G01X33982Y17371D01*
G01X33986Y17334D01*
G01X33989Y17297D01*
G01X33991Y17260D01*
G01X33993Y17223D01*
G01X33995Y17185D01*
G01X33997Y17148D01*
G01X33998Y17111D01*
G01X33999Y17074D01*
G01X33999Y17037D01*
G01X34000Y17000D01*
G04 end of side 10*
G01X34000Y4300D01*
G04 end of side 11*
G01X33999Y4260D01*
G01X33999Y4220D01*
G01X33998Y4180D01*
G01X33997Y4141D01*
G01X33995Y4101D01*
G01X33993Y4061D01*
G01X33991Y4022D01*
G01X33988Y3982D01*
G01X33985Y3942D01*
G01X33982Y3903D01*
G01X33978Y3863D01*
G01X33974Y3824D01*
G01X33969Y3784D01*
G01X33964Y3745D01*
G01X33959Y3705D01*
G01X33954Y3666D01*
G01X33948Y3627D01*
G01X33942Y3588D01*
G01X33935Y3548D01*
G01X33928Y3509D01*
G01X33921Y3470D01*
G01X33913Y3431D01*
G01X33905Y3393D01*
G01X33897Y3354D01*
G01X33888Y3315D01*
G01X33879Y3276D01*
G01X33869Y3238D01*
G01X33860Y3199D01*
G01X33850Y3161D01*
G01X33839Y3123D01*
G01X33828Y3085D01*
G01X33817Y3047D01*
G01X33806Y3009D01*
G01X33794Y2971D01*
G01X33782Y2933D01*
G01X33769Y2895D01*
G01X33756Y2858D01*
G01X33743Y2821D01*
G01X33730Y2783D01*
G01X33716Y2746D01*
G01X33702Y2709D01*
G01X33687Y2672D01*
G01X33672Y2636D01*
G01X33657Y2599D01*
G01X33642Y2563D01*
G01X33626Y2526D01*
G01X33610Y2490D01*
G01X33593Y2454D01*
G01X33576Y2418D01*
G01X33559Y2383D01*
G01X33542Y2347D01*
G01X33524Y2312D01*
G01X33506Y2277D01*
G01X33487Y2242D01*
G01X33469Y2207D01*
G01X33450Y2172D01*
G01X33430Y2138D01*
G01X33411Y2104D01*
G01X33391Y2070D01*
G01X33370Y2036D01*
G01X33350Y2002D01*
G01X33329Y1969D01*
G01X33308Y1935D01*
G01X33286Y1902D01*
G01X33264Y1869D01*
G01X33242Y1837D01*
G01X33220Y1804D01*
G01X33197Y1772D01*
G01X33174Y1740D01*
G01X33151Y1708D01*
G01X33128Y1677D01*
G01X33104Y1645D01*
G01X33080Y1614D01*
G01X33055Y1583D01*
G01X33031Y1552D01*
G01X33006Y1522D01*
G01X32981Y1492D01*
G01X32955Y1462D01*
G01X32929Y1432D01*
G01X32903Y1403D01*
G01X32877Y1373D01*
G01X32851Y1344D01*
G01X32824Y1316D01*
G01X32797Y1287D01*
G01X32769Y1259D01*
G01X32742Y1231D01*
G01X32714Y1203D01*
G01X32686Y1176D01*
G01X32658Y1149D01*
G01X32629Y1122D01*
G01X32600Y1095D01*
G01X32571Y1069D01*
G01X32542Y1043D01*
G01X32512Y1017D01*
G01X32483Y991D01*
G01X32453Y966D01*
G01X32422Y941D01*
G01X32392Y916D01*
G01X32361Y892D01*
G01X32331Y868D01*
G01X32299Y844D01*
G01X32268Y821D01*
G01X32237Y798D01*
G01X32205Y775D01*
G01X32173Y752D01*
G01X32141Y730D01*
G01X32109Y708D01*
G01X32076Y686D01*
G01X32043Y665D01*
G01X32011Y644D01*
G01X31977Y623D01*
G01X31944Y602D01*
G01X31911Y582D01*
G01X31877Y562D01*
G01X31843Y543D01*
G01X31809Y524D01*
G01X31775Y505D01*
G01X31741Y486D01*
G01X31706Y468D01*
G01X31672Y450D01*
G01X31637Y433D01*
G01X31602Y416D01*
G01X31567Y399D01*
G01X31531Y382D01*
G01X31496Y366D01*
G01X31460Y350D01*
G01X31425Y334D01*
G01X31389Y319D01*
G01X31353Y304D01*
G01X31317Y290D01*
G01X31280Y276D01*
G01X31244Y262D01*
G01X31208Y248D01*
G01X31171Y235D01*
G01X31134Y222D01*
G01X31097Y210D01*
G01X31060Y198D01*
G01X31023Y186D01*
G01X30986Y175D01*
G01X30949Y164D01*
G01X30912Y153D01*
G01X30874Y143D01*
G01X30836Y133D01*
G01X30799Y123D01*
G01X30761Y114D01*
G01X30723Y105D01*
G01X30685Y96D01*
G01X30647Y88D01*
G01X30609Y80D01*
G01X30571Y73D01*
G01X30533Y66D01*
G01X30495Y59D01*
G01X30457Y52D01*
G01X30418Y46D01*
G01X30380Y41D01*
G01X30341Y35D01*
G01X30303Y30D01*
G01X30264Y26D01*
G01X30226Y22D01*
G01X30187Y18D01*
G01X30148Y14D01*
G01X30110Y11D01*
G01X30071Y8D01*
G01X30032Y6D01*
G01X29993Y4D01*
G01X29955Y2D01*
G01X29916Y1D01*
G01X29877Y0D01*
G01X29838Y0D01*
G01X29800Y0D01*
G04 end of side 12*
G01X5700Y0D01*

G04 -------------- Draw Parts, Pads, Traces, Vias and Text (positive)*
%LPD*%
G04 Draw part Q1*
G04 draw part outline for part Q1*
G54D11*
G01X24900Y5500D02*
G01X24900Y8900D01*
G01X24900Y8900D02*
G01X23300Y8900D01*
G01X23300Y8900D02*
G01X23300Y5500D01*
G01X23300Y5500D02*
G01X24900Y5500D01*
G01X23500Y5500D02*
G01X23500Y8900D01*
G04 draw reference designator for part Q1*
G01X25036Y8777D02*
G01X24990Y8754D01*
G01X24990Y8754D02*
G01X24945Y8709D01*
G01X24945Y8709D02*
G01X24922Y8663D01*
G01X24922Y8663D02*
G01X24900Y8595D01*
G01X24900Y8595D02*
G01X24900Y8481D01*
G01X24900Y8481D02*
G01X24922Y8413D01*
G01X24922Y8413D02*
G01X24945Y8368D01*
G01X24945Y8368D02*
G01X24990Y8322D01*
G01X24990Y8322D02*
G01X25036Y8300D01*
G01X25127Y8300D02*
G01X25036Y8300D01*
G01X25172Y8322D02*
G01X25127Y8300D01*
G01X25218Y8368D02*
G01X25172Y8322D01*
G01X25240Y8413D02*
G01X25218Y8368D01*
G01X25263Y8481D02*
G01X25240Y8413D01*
G01X25263Y8595D02*
G01X25263Y8481D01*
G01X25240Y8663D02*
G01X25263Y8595D01*
G01X25218Y8709D02*
G01X25240Y8663D01*
G01X25172Y8754D02*
G01X25218Y8709D01*
G01X25127Y8777D02*
G01X25172Y8754D01*
G01X25036Y8777D02*
G01X25127Y8777D01*
G01X25104Y8390D02*
G01X25240Y8254D01*
G01X25490Y8709D02*
G01X25445Y8686D01*
G01X25559Y8777D02*
G01X25490Y8709D01*
G01X25559Y8777D02*
G01X25559Y8300D01*
G04 Draw part Q3*
G04 draw part outline for part Q3*
G01X23000Y10700D02*
G01X19600Y10700D01*
G01X19600Y10700D02*
G01X19600Y9100D01*
G01X19600Y9100D02*
G01X23000Y9100D01*
G01X23000Y9100D02*
G01X23000Y10700D01*
G01X23000Y9300D02*
G01X19600Y9300D01*
G04 draw reference designator for part Q3*
G01X18836Y10277D02*
G01X18790Y10254D01*
G01X18790Y10254D02*
G01X18745Y10209D01*
G01X18745Y10209D02*
G01X18722Y10163D01*
G01X18722Y10163D02*
G01X18700Y10095D01*
G01X18700Y10095D02*
G01X18700Y9981D01*
G01X18700Y9981D02*
G01X18722Y9913D01*
G01X18722Y9913D02*
G01X18745Y9868D01*
G01X18745Y9868D02*
G01X18790Y9822D01*
G01X18790Y9822D02*
G01X18836Y9800D01*
G01X18927Y9800D02*
G01X18836Y9800D01*
G01X18972Y9822D02*
G01X18927Y9800D01*
G01X19018Y9868D02*
G01X18972Y9822D01*
G01X19040Y9913D02*
G01X19018Y9868D01*
G01X19063Y9981D02*
G01X19040Y9913D01*
G01X19063Y10095D02*
G01X19063Y9981D01*
G01X19040Y10163D02*
G01X19063Y10095D01*
G01X19018Y10209D02*
G01X19040Y10163D01*
G01X18972Y10254D02*
G01X19018Y10209D01*
G01X18927Y10277D02*
G01X18972Y10254D01*
G01X18836Y10277D02*
G01X18927Y10277D01*
G01X18904Y9890D02*
G01X19040Y9754D01*
G01X19540Y10277D02*
G01X19290Y10277D01*
G01X19540Y10277D02*
G01X19404Y10095D01*
G01X19472Y10095D02*
G01X19404Y10095D01*
G01X19472Y10095D02*
G01X19518Y10072D01*
G01X19518Y10072D02*
G01X19540Y10050D01*
G01X19540Y10050D02*
G01X19563Y9981D01*
G01X19563Y9981D02*
G01X19563Y9936D01*
G01X19563Y9936D02*
G01X19540Y9868D01*
G01X19540Y9868D02*
G01X19495Y9822D01*
G01X19495Y9822D02*
G01X19427Y9800D01*
G01X19359Y9800D02*
G01X19427Y9800D01*
G01X19290Y9822D02*
G01X19359Y9800D01*
G01X19268Y9845D02*
G01X19290Y9822D01*
G01X19245Y9890D02*
G01X19268Y9845D01*
G04 Draw part Q2*
G04 draw part outline for part Q2*
G01X22700Y8700D02*
G01X19300Y8700D01*
G01X19300Y8700D02*
G01X19300Y7100D01*
G01X19300Y7100D02*
G01X22700Y7100D01*
G01X22700Y7100D02*
G01X22700Y8700D01*
G01X22700Y7300D02*
G01X19300Y7300D01*
G04 draw reference designator for part Q2*
G01X21636Y6877D02*
G01X21590Y6854D01*
G01X21590Y6854D02*
G01X21545Y6809D01*
G01X21545Y6809D02*
G01X21522Y6763D01*
G01X21522Y6763D02*
G01X21500Y6695D01*
G01X21500Y6695D02*
G01X21500Y6581D01*
G01X21500Y6581D02*
G01X21522Y6513D01*
G01X21522Y6513D02*
G01X21545Y6468D01*
G01X21545Y6468D02*
G01X21590Y6422D01*
G01X21590Y6422D02*
G01X21636Y6400D01*
G01X21727Y6400D02*
G01X21636Y6400D01*
G01X21772Y6422D02*
G01X21727Y6400D01*
G01X21818Y6468D02*
G01X21772Y6422D01*
G01X21840Y6513D02*
G01X21818Y6468D01*
G01X21863Y6581D02*
G01X21840Y6513D01*
G01X21863Y6695D02*
G01X21863Y6581D01*
G01X21840Y6763D02*
G01X21863Y6695D01*
G01X21818Y6809D02*
G01X21840Y6763D01*
G01X21772Y6854D02*
G01X21818Y6809D01*
G01X21727Y6877D02*
G01X21772Y6854D01*
G01X21636Y6877D02*
G01X21727Y6877D01*
G01X21704Y6490D02*
G01X21840Y6354D01*
G01X22068Y6786D02*
G01X22068Y6763D01*
G01X22090Y6831D02*
G01X22068Y6786D01*
G01X22113Y6854D02*
G01X22090Y6831D01*
G01X22159Y6877D02*
G01X22113Y6854D01*
G01X22250Y6877D02*
G01X22159Y6877D01*
G01X22250Y6877D02*
G01X22295Y6854D01*
G01X22295Y6854D02*
G01X22318Y6831D01*
G01X22318Y6831D02*
G01X22340Y6786D01*
G01X22340Y6786D02*
G01X22340Y6740D01*
G01X22340Y6740D02*
G01X22318Y6695D01*
G01X22318Y6695D02*
G01X22272Y6627D01*
G01X22272Y6627D02*
G01X22045Y6400D01*
G01X22363Y6400D02*
G01X22045Y6400D01*
G04 Draw part Q4*
G04 draw part outline for part Q4*
G01X23000Y12600D02*
G01X19600Y12600D01*
G01X19600Y12600D02*
G01X19600Y11000D01*
G01X19600Y11000D02*
G01X23000Y11000D01*
G01X23000Y11000D02*
G01X23000Y12600D01*
G01X23000Y11200D02*
G01X19600Y11200D01*
G04 draw reference designator for part Q4*
G01X18836Y11577D02*
G01X18790Y11554D01*
G01X18790Y11554D02*
G01X18745Y11509D01*
G01X18745Y11509D02*
G01X18722Y11463D01*
G01X18722Y11463D02*
G01X18700Y11395D01*
G01X18700Y11395D02*
G01X18700Y11281D01*
G01X18700Y11281D02*
G01X18722Y11213D01*
G01X18722Y11213D02*
G01X18745Y11168D01*
G01X18745Y11168D02*
G01X18790Y11122D01*
G01X18790Y11122D02*
G01X18836Y11100D01*
G01X18927Y11100D02*
G01X18836Y11100D01*
G01X18972Y11122D02*
G01X18927Y11100D01*
G01X19018Y11168D02*
G01X18972Y11122D01*
G01X19040Y11213D02*
G01X19018Y11168D01*
G01X19063Y11281D02*
G01X19040Y11213D01*
G01X19063Y11395D02*
G01X19063Y11281D01*
G01X19040Y11463D02*
G01X19063Y11395D01*
G01X19018Y11509D02*
G01X19040Y11463D01*
G01X18972Y11554D02*
G01X19018Y11509D01*
G01X18927Y11577D02*
G01X18972Y11554D01*
G01X18836Y11577D02*
G01X18927Y11577D01*
G01X18904Y11190D02*
G01X19040Y11054D01*
G01X19472Y11577D02*
G01X19245Y11259D01*
G01X19586Y11259D02*
G01X19245Y11259D01*
G01X19472Y11577D02*
G01X19472Y11100D01*
G04 Draw part U1*
G04 draw part outline for part U1*
G01X28700Y7200D02*
G01X25300Y7200D01*
G01X25300Y7200D02*
G01X25300Y5600D01*
G01X25300Y5600D02*
G01X28700Y5600D01*
G01X28700Y5600D02*
G01X28700Y7200D01*
G01X28700Y5800D02*
G01X25300Y5800D01*
G04 draw reference designator for part U1*
G01X25300Y7777D02*
G01X25300Y7436D01*
G01X25300Y7436D02*
G01X25322Y7368D01*
G01X25322Y7368D02*
G01X25368Y7322D01*
G01X25368Y7322D02*
G01X25436Y7300D01*
G01X25481Y7300D02*
G01X25436Y7300D01*
G01X25550Y7322D02*
G01X25481Y7300D01*
G01X25595Y7368D02*
G01X25550Y7322D01*
G01X25618Y7436D02*
G01X25595Y7368D01*
G01X25618Y7777D02*
G01X25618Y7436D01*
G01X25845Y7709D02*
G01X25800Y7686D01*
G01X25913Y7777D02*
G01X25845Y7709D01*
G01X25913Y7777D02*
G01X25913Y7300D01*
G04 Draw part P9*
G04 draw part outline for part P9*
G04 draw reference designator for part P9*
G01X30000Y1277D02*
G01X30000Y800D01*
G01X30204Y1277D02*
G01X30000Y1277D01*
G01X30204Y1277D02*
G01X30272Y1254D01*
G01X30272Y1254D02*
G01X30295Y1231D01*
G01X30295Y1231D02*
G01X30318Y1186D01*
G01X30318Y1186D02*
G01X30318Y1118D01*
G01X30318Y1118D02*
G01X30295Y1072D01*
G01X30295Y1072D02*
G01X30272Y1050D01*
G01X30272Y1050D02*
G01X30204Y1027D01*
G01X30000Y1027D02*
G01X30204Y1027D01*
G01X30795Y1118D02*
G01X30772Y1050D01*
G01X30772Y1050D02*
G01X30727Y1004D01*
G01X30727Y1004D02*
G01X30659Y981D01*
G01X30636Y981D02*
G01X30659Y981D01*
G01X30568Y1004D02*
G01X30636Y981D01*
G01X30522Y1050D02*
G01X30568Y1004D01*
G01X30500Y1118D02*
G01X30522Y1050D01*
G01X30500Y1140D02*
G01X30500Y1118D01*
G01X30522Y1209D02*
G01X30500Y1140D01*
G01X30568Y1254D02*
G01X30522Y1209D01*
G01X30636Y1277D02*
G01X30568Y1254D01*
G01X30659Y1277D02*
G01X30636Y1277D01*
G01X30659Y1277D02*
G01X30727Y1254D01*
G01X30727Y1254D02*
G01X30772Y1209D01*
G01X30772Y1209D02*
G01X30795Y1118D01*
G01X30795Y1118D02*
G01X30795Y1004D01*
G01X30795Y1004D02*
G01X30772Y890D01*
G01X30772Y890D02*
G01X30727Y822D01*
G01X30727Y822D02*
G01X30659Y800D01*
G01X30613Y800D02*
G01X30659Y800D01*
G01X30545Y822D02*
G01X30613Y800D01*
G01X30522Y868D02*
G01X30545Y822D01*
G04 Draw part P8*
G04 draw part outline for part P8*
G04 draw reference designator for part P8*
G01X30200Y20477D02*
G01X30200Y20000D01*
G01X30404Y20477D02*
G01X30200Y20477D01*
G01X30404Y20477D02*
G01X30472Y20454D01*
G01X30472Y20454D02*
G01X30495Y20431D01*
G01X30495Y20431D02*
G01X30518Y20386D01*
G01X30518Y20386D02*
G01X30518Y20318D01*
G01X30518Y20318D02*
G01X30495Y20272D01*
G01X30495Y20272D02*
G01X30472Y20250D01*
G01X30472Y20250D02*
G01X30404Y20227D01*
G01X30200Y20227D02*
G01X30404Y20227D01*
G01X30813Y20477D02*
G01X30745Y20454D01*
G01X30745Y20454D02*
G01X30722Y20409D01*
G01X30722Y20409D02*
G01X30722Y20363D01*
G01X30722Y20363D02*
G01X30745Y20318D01*
G01X30745Y20318D02*
G01X30790Y20295D01*
G01X30790Y20295D02*
G01X30881Y20272D01*
G01X30881Y20272D02*
G01X30950Y20250D01*
G01X30950Y20250D02*
G01X30995Y20204D01*
G01X30995Y20204D02*
G01X31018Y20159D01*
G01X31018Y20159D02*
G01X31018Y20090D01*
G01X31018Y20090D02*
G01X30995Y20045D01*
G01X30995Y20045D02*
G01X30972Y20022D01*
G01X30972Y20022D02*
G01X30904Y20000D01*
G01X30813Y20000D02*
G01X30904Y20000D01*
G01X30745Y20022D02*
G01X30813Y20000D01*
G01X30722Y20045D02*
G01X30745Y20022D01*
G01X30700Y20090D02*
G01X30722Y20045D01*
G01X30700Y20159D02*
G01X30700Y20090D01*
G01X30722Y20204D02*
G01X30700Y20159D01*
G01X30768Y20250D02*
G01X30722Y20204D01*
G01X30836Y20272D02*
G01X30768Y20250D01*
G01X30927Y20295D02*
G01X30836Y20272D01*
G01X30972Y20318D02*
G01X30927Y20295D01*
G01X30995Y20363D02*
G01X30972Y20318D01*
G01X30995Y20409D02*
G01X30995Y20363D01*
G01X30972Y20454D02*
G01X30995Y20409D01*
G01X30904Y20477D02*
G01X30972Y20454D01*
G01X30813Y20477D02*
G01X30904Y20477D01*
G04 Draw part D1*
G04 draw part outline for part D1*
G01X15700Y8840D02*
G01X17750Y8840D01*
G01X17750Y8840D02*
G01X17750Y7760D01*
G01X17750Y7760D02*
G01X15700Y7760D01*
G01X15700Y7760D02*
G01X15700Y8840D01*
G01X17500Y8840D02*
G01X17500Y7760D01*
G04 draw reference designator for part D1*
G01X16300Y8477D02*
G01X16300Y8000D01*
G01X16459Y8477D02*
G01X16300Y8477D01*
G01X16459Y8477D02*
G01X16527Y8454D01*
G01X16527Y8454D02*
G01X16572Y8409D01*
G01X16572Y8409D02*
G01X16595Y8363D01*
G01X16595Y8363D02*
G01X16618Y8295D01*
G01X16618Y8295D02*
G01X16618Y8181D01*
G01X16618Y8181D02*
G01X16595Y8113D01*
G01X16595Y8113D02*
G01X16572Y8068D01*
G01X16572Y8068D02*
G01X16527Y8022D01*
G01X16527Y8022D02*
G01X16459Y8000D01*
G01X16300Y8000D02*
G01X16459Y8000D01*
G01X16845Y8409D02*
G01X16800Y8386D01*
G01X16913Y8477D02*
G01X16845Y8409D01*
G01X16913Y8477D02*
G01X16913Y8000D01*
G04 Draw part D3*
G04 draw part outline for part D3*
G01X15700Y11240D02*
G01X17750Y11240D01*
G01X17750Y11240D02*
G01X17750Y10160D01*
G01X17750Y10160D02*
G01X15700Y10160D01*
G01X15700Y10160D02*
G01X15700Y11240D01*
G01X17500Y11240D02*
G01X17500Y10160D01*
G04 draw reference designator for part D3*
G01X16300Y10877D02*
G01X16300Y10400D01*
G01X16459Y10877D02*
G01X16300Y10877D01*
G01X16459Y10877D02*
G01X16527Y10854D01*
G01X16527Y10854D02*
G01X16572Y10809D01*
G01X16572Y10809D02*
G01X16595Y10763D01*
G01X16595Y10763D02*
G01X16618Y10695D01*
G01X16618Y10695D02*
G01X16618Y10581D01*
G01X16618Y10581D02*
G01X16595Y10513D01*
G01X16595Y10513D02*
G01X16572Y10468D01*
G01X16572Y10468D02*
G01X16527Y10422D01*
G01X16527Y10422D02*
G01X16459Y10400D01*
G01X16300Y10400D02*
G01X16459Y10400D01*
G01X17095Y10877D02*
G01X16845Y10877D01*
G01X17095Y10877D02*
G01X16959Y10695D01*
G01X17027Y10695D02*
G01X16959Y10695D01*
G01X17027Y10695D02*
G01X17072Y10672D01*
G01X17072Y10672D02*
G01X17095Y10650D01*
G01X17095Y10650D02*
G01X17118Y10581D01*
G01X17118Y10581D02*
G01X17118Y10536D01*
G01X17118Y10536D02*
G01X17095Y10468D01*
G01X17095Y10468D02*
G01X17050Y10422D01*
G01X17050Y10422D02*
G01X16981Y10400D01*
G01X16913Y10400D02*
G01X16981Y10400D01*
G01X16845Y10422D02*
G01X16913Y10400D01*
G01X16822Y10445D02*
G01X16845Y10422D01*
G01X16800Y10490D02*
G01X16822Y10445D01*
G04 Draw part D2*
G04 draw part outline for part D2*
G01X15700Y10040D02*
G01X17750Y10040D01*
G01X17750Y10040D02*
G01X17750Y8960D01*
G01X17750Y8960D02*
G01X15700Y8960D01*
G01X15700Y8960D02*
G01X15700Y10040D01*
G01X17500Y10040D02*
G01X17500Y8960D01*
G04 draw reference designator for part D2*
G01X16300Y9677D02*
G01X16300Y9200D01*
G01X16459Y9677D02*
G01X16300Y9677D01*
G01X16459Y9677D02*
G01X16527Y9654D01*
G01X16527Y9654D02*
G01X16572Y9609D01*
G01X16572Y9609D02*
G01X16595Y9563D01*
G01X16595Y9563D02*
G01X16618Y9495D01*
G01X16618Y9495D02*
G01X16618Y9381D01*
G01X16618Y9381D02*
G01X16595Y9313D01*
G01X16595Y9313D02*
G01X16572Y9268D01*
G01X16572Y9268D02*
G01X16527Y9222D01*
G01X16527Y9222D02*
G01X16459Y9200D01*
G01X16300Y9200D02*
G01X16459Y9200D01*
G01X16822Y9586D02*
G01X16822Y9563D01*
G01X16845Y9631D02*
G01X16822Y9586D01*
G01X16868Y9654D02*
G01X16845Y9631D01*
G01X16913Y9677D02*
G01X16868Y9654D01*
G01X17004Y9677D02*
G01X16913Y9677D01*
G01X17004Y9677D02*
G01X17050Y9654D01*
G01X17050Y9654D02*
G01X17072Y9631D01*
G01X17072Y9631D02*
G01X17095Y9586D01*
G01X17095Y9586D02*
G01X17095Y9540D01*
G01X17095Y9540D02*
G01X17072Y9495D01*
G01X17072Y9495D02*
G01X17027Y9427D01*
G01X17027Y9427D02*
G01X16800Y9200D01*
G01X17118Y9200D02*
G01X16800Y9200D01*
G04 Draw part D4*
G04 draw part outline for part D4*
G01X15700Y12440D02*
G01X17750Y12440D01*
G01X17750Y12440D02*
G01X17750Y11360D01*
G01X17750Y11360D02*
G01X15700Y11360D01*
G01X15700Y11360D02*
G01X15700Y12440D01*
G01X17500Y12440D02*
G01X17500Y11360D01*
G04 draw reference designator for part D4*
G01X16200Y12077D02*
G01X16200Y11600D01*
G01X16359Y12077D02*
G01X16200Y12077D01*
G01X16359Y12077D02*
G01X16427Y12054D01*
G01X16427Y12054D02*
G01X16472Y12009D01*
G01X16472Y12009D02*
G01X16495Y11963D01*
G01X16495Y11963D02*
G01X16518Y11895D01*
G01X16518Y11895D02*
G01X16518Y11781D01*
G01X16518Y11781D02*
G01X16495Y11713D01*
G01X16495Y11713D02*
G01X16472Y11668D01*
G01X16472Y11668D02*
G01X16427Y11622D01*
G01X16427Y11622D02*
G01X16359Y11600D01*
G01X16200Y11600D02*
G01X16359Y11600D01*
G01X16927Y12077D02*
G01X16700Y11759D01*
G01X17040Y11759D02*
G01X16700Y11759D01*
G01X16927Y12077D02*
G01X16927Y11600D01*
G04 Draw part D5*
G04 draw part outline for part D5*
G01X15700Y13640D02*
G01X17750Y13640D01*
G01X17750Y13640D02*
G01X17750Y12560D01*
G01X17750Y12560D02*
G01X15700Y12560D01*
G01X15700Y12560D02*
G01X15700Y13640D01*
G01X17500Y13640D02*
G01X17500Y12560D01*
G04 draw reference designator for part D5*
G54D12*
G01X16200Y13277D02*
G01X16200Y12800D01*
G01X16359Y13277D02*
G01X16200Y13277D01*
G01X16359Y13277D02*
G01X16427Y13254D01*
G01X16427Y13254D02*
G01X16472Y13209D01*
G01X16472Y13209D02*
G01X16495Y13163D01*
G01X16495Y13163D02*
G01X16518Y13095D01*
G01X16518Y13095D02*
G01X16518Y12981D01*
G01X16518Y12981D02*
G01X16495Y12913D01*
G01X16495Y12913D02*
G01X16472Y12868D01*
G01X16472Y12868D02*
G01X16427Y12822D01*
G01X16427Y12822D02*
G01X16359Y12800D01*
G01X16200Y12800D02*
G01X16359Y12800D01*
G01X16745Y13277D02*
G01X16972Y13277D01*
G01X16745Y13277D02*
G01X16722Y13072D01*
G01X16745Y13095D02*
G01X16722Y13072D01*
G01X16813Y13118D02*
G01X16745Y13095D01*
G01X16881Y13118D02*
G01X16813Y13118D01*
G01X16881Y13118D02*
G01X16950Y13095D01*
G01X16950Y13095D02*
G01X16995Y13050D01*
G01X16995Y13050D02*
G01X17018Y12981D01*
G01X17018Y12981D02*
G01X17018Y12936D01*
G01X17018Y12936D02*
G01X16995Y12868D01*
G01X16995Y12868D02*
G01X16950Y12822D01*
G01X16950Y12822D02*
G01X16881Y12800D01*
G01X16813Y12800D02*
G01X16881Y12800D01*
G01X16745Y12822D02*
G01X16813Y12800D01*
G01X16722Y12845D02*
G01X16745Y12822D01*
G01X16700Y12890D02*
G01X16722Y12845D01*
G04 Draw part C4*
G04 draw part outline for part C4*
G54D11*
G01X3965Y18154D02*
G01X5303Y18154D01*
G01X5303Y18154D02*
G01X5303Y17445D01*
G01X5303Y17445D02*
G01X3965Y17445D01*
G01X3965Y17445D02*
G01X3965Y18154D01*
G04 draw reference designator for part C4*
G01X4118Y17309D02*
G01X4140Y17263D01*
G01X4072Y17354D02*
G01X4118Y17309D01*
G01X4027Y17377D02*
G01X4072Y17354D01*
G01X3936Y17377D02*
G01X4027Y17377D01*
G01X3936Y17377D02*
G01X3890Y17354D01*
G01X3890Y17354D02*
G01X3845Y17309D01*
G01X3845Y17309D02*
G01X3822Y17263D01*
G01X3822Y17263D02*
G01X3800Y17195D01*
G01X3800Y17195D02*
G01X3800Y17081D01*
G01X3800Y17081D02*
G01X3822Y17013D01*
G01X3822Y17013D02*
G01X3845Y16968D01*
G01X3845Y16968D02*
G01X3890Y16922D01*
G01X3890Y16922D02*
G01X3936Y16900D01*
G01X4027Y16900D02*
G01X3936Y16900D01*
G01X4072Y16922D02*
G01X4027Y16900D01*
G01X4118Y16968D02*
G01X4072Y16922D01*
G01X4140Y17013D02*
G01X4118Y16968D01*
G01X4550Y17377D02*
G01X4322Y17059D01*
G01X4663Y17059D02*
G01X4322Y17059D01*
G01X4550Y17377D02*
G01X4550Y16900D01*
G04 Draw part C2*
G04 draw part outline for part C2*
G01X27554Y5434D02*
G01X27554Y4096D01*
G01X27554Y4096D02*
G01X26845Y4096D01*
G01X26845Y4096D02*
G01X26845Y5434D01*
G01X26845Y5434D02*
G01X27554Y5434D01*
G04 draw reference designator for part C2*
G54D12*
G01X27118Y3909D02*
G01X27140Y3863D01*
G01X27072Y3954D02*
G01X27118Y3909D01*
G01X27027Y3977D02*
G01X27072Y3954D01*
G01X26936Y3977D02*
G01X27027Y3977D01*
G01X26936Y3977D02*
G01X26890Y3954D01*
G01X26890Y3954D02*
G01X26845Y3909D01*
G01X26845Y3909D02*
G01X26822Y3863D01*
G01X26822Y3863D02*
G01X26800Y3795D01*
G01X26800Y3795D02*
G01X26800Y3681D01*
G01X26800Y3681D02*
G01X26822Y3613D01*
G01X26822Y3613D02*
G01X26845Y3568D01*
G01X26845Y3568D02*
G01X26890Y3522D01*
G01X26890Y3522D02*
G01X26936Y3500D01*
G01X27027Y3500D02*
G01X26936Y3500D01*
G01X27072Y3522D02*
G01X27027Y3500D01*
G01X27118Y3568D02*
G01X27072Y3522D01*
G01X27140Y3613D02*
G01X27118Y3568D01*
G01X27345Y3886D02*
G01X27345Y3863D01*
G01X27368Y3931D02*
G01X27345Y3886D01*
G01X27390Y3954D02*
G01X27368Y3931D01*
G01X27436Y3977D02*
G01X27390Y3954D01*
G01X27527Y3977D02*
G01X27436Y3977D01*
G01X27527Y3977D02*
G01X27572Y3954D01*
G01X27572Y3954D02*
G01X27595Y3931D01*
G01X27595Y3931D02*
G01X27618Y3886D01*
G01X27618Y3886D02*
G01X27618Y3840D01*
G01X27618Y3840D02*
G01X27595Y3795D01*
G01X27595Y3795D02*
G01X27550Y3727D01*
G01X27550Y3727D02*
G01X27322Y3500D01*
G01X27640Y3500D02*
G01X27322Y3500D01*
G04 Draw part C1*
G04 draw part outline for part C1*
G54D11*
G01X29034Y4745D02*
G01X27696Y4745D01*
G01X27696Y4745D02*
G01X27696Y5454D01*
G01X27696Y5454D02*
G01X29034Y5454D01*
G01X29034Y5454D02*
G01X29034Y4745D01*
G04 draw reference designator for part C1*
G54D12*
G01X29218Y5709D02*
G01X29240Y5663D01*
G01X29172Y5754D02*
G01X29218Y5709D01*
G01X29127Y5777D02*
G01X29172Y5754D01*
G01X29036Y5777D02*
G01X29127Y5777D01*
G01X29036Y5777D02*
G01X28990Y5754D01*
G01X28990Y5754D02*
G01X28945Y5709D01*
G01X28945Y5709D02*
G01X28922Y5663D01*
G01X28922Y5663D02*
G01X28900Y5595D01*
G01X28900Y5595D02*
G01X28900Y5481D01*
G01X28900Y5481D02*
G01X28922Y5413D01*
G01X28922Y5413D02*
G01X28945Y5368D01*
G01X28945Y5368D02*
G01X28990Y5322D01*
G01X28990Y5322D02*
G01X29036Y5300D01*
G01X29127Y5300D02*
G01X29036Y5300D01*
G01X29172Y5322D02*
G01X29127Y5300D01*
G01X29218Y5368D02*
G01X29172Y5322D01*
G01X29240Y5413D02*
G01X29218Y5368D01*
G01X29468Y5709D02*
G01X29422Y5686D01*
G01X29536Y5777D02*
G01X29468Y5709D01*
G01X29536Y5777D02*
G01X29536Y5300D01*
G04 Draw part C3*
G04 draw part outline for part C3*
G54D11*
G01X28950Y4100D02*
G01X28650Y4100D01*
G01X28800Y3950D02*
G01X28800Y4250D01*
G01X27420Y3600D02*
G01X27420Y3560D01*
G01X27423Y3521D01*
G01X27427Y3481D01*
G01X27432Y3442D01*
G01X27440Y3403D01*
G01X27448Y3365D01*
G01X27459Y3327D01*
G01X27470Y3289D01*
G01X27484Y3252D01*
G01X27499Y3215D01*
G01X27515Y3179D01*
G01X27533Y3144D01*
G01X27552Y3109D01*
G01X27573Y3076D01*
G01X27595Y3043D01*
G01X27618Y3011D01*
G01X27643Y2980D01*
G01X27668Y2950D01*
G01X27696Y2921D01*
G01X27724Y2893D01*
G01X27753Y2866D01*
G01X27783Y2840D01*
G01X27815Y2816D01*
G01X27847Y2793D01*
G01X27880Y2771D01*
G01X27915Y2751D01*
G01X27949Y2732D01*
G01X27985Y2714D01*
G01X28021Y2698D01*
G01X28058Y2683D01*
G01X28096Y2670D01*
G01X28134Y2658D01*
G01X28173Y2648D01*
G01X28211Y2639D01*
G01X28251Y2632D01*
G01X28290Y2627D01*
G01X28330Y2623D01*
G01X28370Y2620D01*
G01X28410Y2620D01*
G01X28410Y2620D02*
G01X28449Y2620D01*
G01X28488Y2623D01*
G01X28528Y2627D01*
G01X28567Y2632D01*
G01X28606Y2639D01*
G01X28644Y2648D01*
G01X28682Y2658D01*
G01X28720Y2670D01*
G01X28757Y2683D01*
G01X28794Y2698D01*
G01X28830Y2714D01*
G01X28865Y2732D01*
G01X28900Y2751D01*
G01X28933Y2771D01*
G01X28966Y2793D01*
G01X28998Y2816D01*
G01X29029Y2840D01*
G01X29059Y2866D01*
G01X29088Y2893D01*
G01X29116Y2921D01*
G01X29143Y2950D01*
G01X29169Y2980D01*
G01X29193Y3011D01*
G01X29216Y3043D01*
G01X29238Y3076D01*
G01X29258Y3110D01*
G01X29277Y3144D01*
G01X29295Y3179D01*
G01X29311Y3215D01*
G01X29326Y3252D01*
G01X29339Y3289D01*
G01X29351Y3327D01*
G01X29361Y3365D01*
G01X29370Y3403D01*
G01X29377Y3442D01*
G01X29382Y3481D01*
G01X29386Y3521D01*
G01X29389Y3560D01*
G01X29390Y3600D01*
G01X29390Y3600D02*
G01X29389Y3639D01*
G01X29386Y3678D01*
G01X29382Y3718D01*
G01X29377Y3757D01*
G01X29370Y3796D01*
G01X29361Y3834D01*
G01X29351Y3872D01*
G01X29339Y3910D01*
G01X29326Y3947D01*
G01X29311Y3984D01*
G01X29295Y4020D01*
G01X29277Y4055D01*
G01X29258Y4090D01*
G01X29238Y4123D01*
G01X29216Y4156D01*
G01X29193Y4188D01*
G01X29169Y4219D01*
G01X29143Y4249D01*
G01X29116Y4278D01*
G01X29088Y4306D01*
G01X29059Y4333D01*
G01X29029Y4359D01*
G01X28998Y4383D01*
G01X28966Y4406D01*
G01X28933Y4428D01*
G01X28899Y4448D01*
G01X28865Y4467D01*
G01X28830Y4485D01*
G01X28794Y4501D01*
G01X28757Y4516D01*
G01X28720Y4529D01*
G01X28682Y4541D01*
G01X28644Y4551D01*
G01X28606Y4560D01*
G01X28567Y4567D01*
G01X28528Y4572D01*
G01X28488Y4576D01*
G01X28449Y4579D01*
G01X28410Y4580D01*
G01X28410Y4580D02*
G01X28370Y4579D01*
G01X28330Y4576D01*
G01X28290Y4572D01*
G01X28251Y4567D01*
G01X28211Y4560D01*
G01X28173Y4551D01*
G01X28134Y4541D01*
G01X28096Y4529D01*
G01X28058Y4516D01*
G01X28021Y4501D01*
G01X27985Y4485D01*
G01X27949Y4467D01*
G01X27914Y4448D01*
G01X27880Y4428D01*
G01X27847Y4406D01*
G01X27815Y4383D01*
G01X27783Y4359D01*
G01X27753Y4333D01*
G01X27724Y4306D01*
G01X27696Y4278D01*
G01X27668Y4249D01*
G01X27643Y4219D01*
G01X27618Y4188D01*
G01X27595Y4156D01*
G01X27573Y4123D01*
G01X27552Y4089D01*
G01X27533Y4055D01*
G01X27515Y4020D01*
G01X27499Y3984D01*
G01X27484Y3947D01*
G01X27470Y3910D01*
G01X27459Y3872D01*
G01X27448Y3834D01*
G01X27440Y3796D01*
G01X27432Y3757D01*
G01X27427Y3718D01*
G01X27423Y3678D01*
G01X27420Y3639D01*
G01X27420Y3600D01*
G04 draw reference designator for part C3*
G01X28318Y3209D02*
G01X28340Y3163D01*
G01X28272Y3254D02*
G01X28318Y3209D01*
G01X28227Y3277D02*
G01X28272Y3254D01*
G01X28136Y3277D02*
G01X28227Y3277D01*
G01X28136Y3277D02*
G01X28090Y3254D01*
G01X28090Y3254D02*
G01X28045Y3209D01*
G01X28045Y3209D02*
G01X28022Y3163D01*
G01X28022Y3163D02*
G01X28000Y3095D01*
G01X28000Y3095D02*
G01X28000Y2981D01*
G01X28000Y2981D02*
G01X28022Y2913D01*
G01X28022Y2913D02*
G01X28045Y2868D01*
G01X28045Y2868D02*
G01X28090Y2822D01*
G01X28090Y2822D02*
G01X28136Y2800D01*
G01X28227Y2800D02*
G01X28136Y2800D01*
G01X28272Y2822D02*
G01X28227Y2800D01*
G01X28318Y2868D02*
G01X28272Y2822D01*
G01X28340Y2913D02*
G01X28318Y2868D01*
G01X28818Y3277D02*
G01X28568Y3277D01*
G01X28818Y3277D02*
G01X28681Y3095D01*
G01X28750Y3095D02*
G01X28681Y3095D01*
G01X28750Y3095D02*
G01X28795Y3072D01*
G01X28795Y3072D02*
G01X28818Y3050D01*
G01X28818Y3050D02*
G01X28840Y2981D01*
G01X28840Y2981D02*
G01X28840Y2936D01*
G01X28840Y2936D02*
G01X28818Y2868D01*
G01X28818Y2868D02*
G01X28772Y2822D01*
G01X28772Y2822D02*
G01X28704Y2800D01*
G01X28636Y2800D02*
G01X28704Y2800D01*
G01X28568Y2822D02*
G01X28636Y2800D01*
G01X28545Y2845D02*
G01X28568Y2822D01*
G01X28522Y2890D02*
G01X28545Y2845D01*
G04 draw value for part C3*
G01X28066Y2567D02*
G01X28021Y2544D01*
G01X28134Y2635D02*
G01X28066Y2567D01*
G01X28134Y2635D02*
G01X28134Y2158D01*
G01X28452Y2635D02*
G01X28384Y2612D01*
G01X28384Y2612D02*
G01X28339Y2544D01*
G01X28339Y2544D02*
G01X28316Y2430D01*
G01X28316Y2430D02*
G01X28316Y2362D01*
G01X28316Y2362D02*
G01X28339Y2248D01*
G01X28339Y2248D02*
G01X28384Y2180D01*
G01X28384Y2180D02*
G01X28452Y2158D01*
G01X28498Y2158D02*
G01X28452Y2158D01*
G01X28566Y2180D02*
G01X28498Y2158D01*
G01X28611Y2248D02*
G01X28566Y2180D01*
G01X28634Y2362D02*
G01X28611Y2248D01*
G01X28634Y2430D02*
G01X28634Y2362D01*
G01X28611Y2544D02*
G01X28634Y2430D01*
G01X28566Y2612D02*
G01X28611Y2544D01*
G01X28498Y2635D02*
G01X28566Y2612D01*
G01X28452Y2635D02*
G01X28498Y2635D01*
G01X28952Y2635D02*
G01X28884Y2612D01*
G01X28884Y2612D02*
G01X28839Y2544D01*
G01X28839Y2544D02*
G01X28816Y2430D01*
G01X28816Y2430D02*
G01X28816Y2362D01*
G01X28816Y2362D02*
G01X28839Y2248D01*
G01X28839Y2248D02*
G01X28884Y2180D01*
G01X28884Y2180D02*
G01X28952Y2158D01*
G01X28998Y2158D02*
G01X28952Y2158D01*
G01X29066Y2180D02*
G01X28998Y2158D01*
G01X29111Y2248D02*
G01X29066Y2180D01*
G01X29134Y2362D02*
G01X29111Y2248D01*
G01X29134Y2430D02*
G01X29134Y2362D01*
G01X29111Y2544D02*
G01X29134Y2430D01*
G01X29066Y2612D02*
G01X29111Y2544D01*
G01X28998Y2635D02*
G01X29066Y2612D01*
G01X28952Y2635D02*
G01X28998Y2635D01*
G01X29316Y2476D02*
G01X29316Y2248D01*
G01X29316Y2248D02*
G01X29339Y2180D01*
G01X29339Y2180D02*
G01X29384Y2158D01*
G01X29452Y2158D02*
G01X29384Y2158D01*
G01X29498Y2180D02*
G01X29452Y2158D01*
G01X29566Y2248D02*
G01X29498Y2180D01*
G01X29566Y2476D02*
G01X29566Y2158D01*
G01X29748Y2635D02*
G01X29748Y2158D01*
G01X30043Y2635D02*
G01X29748Y2635D01*
G01X29930Y2408D02*
G01X29748Y2408D01*
G04 Draw part J12*
G04 draw part outline for part J12*
G04 draw reference designator for part J12*
G54D10*
G01X6527Y2577D02*
G01X6527Y2213D01*
G01X6527Y2213D02*
G01X6504Y2145D01*
G01X6504Y2145D02*
G01X6481Y2122D01*
G01X6481Y2122D02*
G01X6436Y2100D01*
G01X6390Y2100D02*
G01X6436Y2100D01*
G01X6345Y2122D02*
G01X6390Y2100D01*
G01X6322Y2145D02*
G01X6345Y2122D01*
G01X6300Y2213D02*
G01X6322Y2145D01*
G01X6300Y2259D02*
G01X6300Y2213D01*
G01X6754Y2509D02*
G01X6709Y2486D01*
G01X6822Y2577D02*
G01X6754Y2509D01*
G01X6822Y2577D02*
G01X6822Y2100D01*
G01X7027Y2486D02*
G01X7027Y2463D01*
G01X7050Y2531D02*
G01X7027Y2486D01*
G01X7072Y2554D02*
G01X7050Y2531D01*
G01X7118Y2577D02*
G01X7072Y2554D01*
G01X7209Y2577D02*
G01X7118Y2577D01*
G01X7209Y2577D02*
G01X7254Y2554D01*
G01X7254Y2554D02*
G01X7277Y2531D01*
G01X7277Y2531D02*
G01X7300Y2486D01*
G01X7300Y2486D02*
G01X7300Y2440D01*
G01X7300Y2440D02*
G01X7277Y2395D01*
G01X7277Y2395D02*
G01X7231Y2327D01*
G01X7231Y2327D02*
G01X7004Y2100D01*
G01X7322Y2100D02*
G01X7004Y2100D01*
G04 Draw part Q6*
G04 draw part outline for part Q6*
G54D11*
G01X15100Y18500D02*
G01X15100Y15100D01*
G01X15100Y15100D02*
G01X16700Y15100D01*
G01X16700Y15100D02*
G01X16700Y18500D01*
G01X16700Y18500D02*
G01X15100Y18500D01*
G01X16500Y18500D02*
G01X16500Y15100D01*
G04 draw reference designator for part Q6*
G01X14136Y17377D02*
G01X14090Y17354D01*
G01X14090Y17354D02*
G01X14045Y17309D01*
G01X14045Y17309D02*
G01X14022Y17263D01*
G01X14022Y17263D02*
G01X14000Y17195D01*
G01X14000Y17195D02*
G01X14000Y17081D01*
G01X14000Y17081D02*
G01X14022Y17013D01*
G01X14022Y17013D02*
G01X14045Y16968D01*
G01X14045Y16968D02*
G01X14090Y16922D01*
G01X14090Y16922D02*
G01X14136Y16900D01*
G01X14227Y16900D02*
G01X14136Y16900D01*
G01X14272Y16922D02*
G01X14227Y16900D01*
G01X14318Y16968D02*
G01X14272Y16922D01*
G01X14340Y17013D02*
G01X14318Y16968D01*
G01X14363Y17081D02*
G01X14340Y17013D01*
G01X14363Y17195D02*
G01X14363Y17081D01*
G01X14340Y17263D02*
G01X14363Y17195D01*
G01X14318Y17309D02*
G01X14340Y17263D01*
G01X14272Y17354D02*
G01X14318Y17309D01*
G01X14227Y17377D02*
G01X14272Y17354D01*
G01X14136Y17377D02*
G01X14227Y17377D01*
G01X14204Y16990D02*
G01X14340Y16854D01*
G01X14795Y17354D02*
G01X14818Y17309D01*
G01X14727Y17377D02*
G01X14795Y17354D01*
G01X14681Y17377D02*
G01X14727Y17377D01*
G01X14681Y17377D02*
G01X14613Y17354D01*
G01X14613Y17354D02*
G01X14568Y17286D01*
G01X14568Y17286D02*
G01X14545Y17172D01*
G01X14545Y17172D02*
G01X14545Y17059D01*
G01X14545Y17059D02*
G01X14568Y16968D01*
G01X14568Y16968D02*
G01X14613Y16922D01*
G01X14613Y16922D02*
G01X14681Y16900D01*
G01X14704Y16900D02*
G01X14681Y16900D01*
G01X14772Y16922D02*
G01X14704Y16900D01*
G01X14818Y16968D02*
G01X14772Y16922D01*
G01X14840Y17036D02*
G01X14818Y16968D01*
G01X14840Y17059D02*
G01X14840Y17036D01*
G01X14818Y17127D02*
G01X14840Y17059D01*
G01X14772Y17172D02*
G01X14818Y17127D01*
G01X14704Y17195D02*
G01X14772Y17172D01*
G01X14681Y17195D02*
G01X14704Y17195D01*
G01X14681Y17195D02*
G01X14613Y17172D01*
G01X14613Y17172D02*
G01X14568Y17127D01*
G01X14568Y17127D02*
G01X14545Y17059D01*
G04 Draw part D6*
G04 draw part outline for part D6*
G01X15700Y14840D02*
G01X17750Y14840D01*
G01X17750Y14840D02*
G01X17750Y13760D01*
G01X17750Y13760D02*
G01X15700Y13760D01*
G01X15700Y13760D02*
G01X15700Y14840D01*
G01X17500Y14840D02*
G01X17500Y13760D01*
G04 draw reference designator for part D6*
G01X16200Y14477D02*
G01X16200Y14000D01*
G01X16359Y14477D02*
G01X16200Y14477D01*
G01X16359Y14477D02*
G01X16427Y14454D01*
G01X16427Y14454D02*
G01X16472Y14409D01*
G01X16472Y14409D02*
G01X16495Y14363D01*
G01X16495Y14363D02*
G01X16518Y14295D01*
G01X16518Y14295D02*
G01X16518Y14181D01*
G01X16518Y14181D02*
G01X16495Y14113D01*
G01X16495Y14113D02*
G01X16472Y14068D01*
G01X16472Y14068D02*
G01X16427Y14022D01*
G01X16427Y14022D02*
G01X16359Y14000D01*
G01X16200Y14000D02*
G01X16359Y14000D01*
G01X16950Y14454D02*
G01X16972Y14409D01*
G01X16881Y14477D02*
G01X16950Y14454D01*
G01X16836Y14477D02*
G01X16881Y14477D01*
G01X16836Y14477D02*
G01X16768Y14454D01*
G01X16768Y14454D02*
G01X16722Y14386D01*
G01X16722Y14386D02*
G01X16700Y14272D01*
G01X16700Y14272D02*
G01X16700Y14159D01*
G01X16700Y14159D02*
G01X16722Y14068D01*
G01X16722Y14068D02*
G01X16768Y14022D01*
G01X16768Y14022D02*
G01X16836Y14000D01*
G01X16859Y14000D02*
G01X16836Y14000D01*
G01X16927Y14022D02*
G01X16859Y14000D01*
G01X16972Y14068D02*
G01X16927Y14022D01*
G01X16995Y14136D02*
G01X16972Y14068D01*
G01X16995Y14159D02*
G01X16995Y14136D01*
G01X16972Y14227D02*
G01X16995Y14159D01*
G01X16927Y14272D02*
G01X16972Y14227D01*
G01X16859Y14295D02*
G01X16927Y14272D01*
G01X16836Y14295D02*
G01X16859Y14295D01*
G01X16836Y14295D02*
G01X16768Y14272D01*
G01X16768Y14272D02*
G01X16722Y14227D01*
G01X16722Y14227D02*
G01X16700Y14159D01*
G04 Draw part Q5*
G04 draw part outline for part Q5*
G01X24900Y9100D02*
G01X24900Y12500D01*
G01X24900Y12500D02*
G01X23300Y12500D01*
G01X23300Y12500D02*
G01X23300Y9100D01*
G01X23300Y9100D02*
G01X24900Y9100D01*
G01X23500Y9100D02*
G01X23500Y12500D01*
G04 draw reference designator for part Q5*
G01X25236Y12377D02*
G01X25190Y12354D01*
G01X25190Y12354D02*
G01X25145Y12309D01*
G01X25145Y12309D02*
G01X25122Y12263D01*
G01X25122Y12263D02*
G01X25100Y12195D01*
G01X25100Y12195D02*
G01X25100Y12081D01*
G01X25100Y12081D02*
G01X25122Y12013D01*
G01X25122Y12013D02*
G01X25145Y11968D01*
G01X25145Y11968D02*
G01X25190Y11922D01*
G01X25190Y11922D02*
G01X25236Y11900D01*
G01X25327Y11900D02*
G01X25236Y11900D01*
G01X25372Y11922D02*
G01X25327Y11900D01*
G01X25418Y11968D02*
G01X25372Y11922D01*
G01X25440Y12013D02*
G01X25418Y11968D01*
G01X25463Y12081D02*
G01X25440Y12013D01*
G01X25463Y12195D02*
G01X25463Y12081D01*
G01X25440Y12263D02*
G01X25463Y12195D01*
G01X25418Y12309D02*
G01X25440Y12263D01*
G01X25372Y12354D02*
G01X25418Y12309D01*
G01X25327Y12377D02*
G01X25372Y12354D01*
G01X25236Y12377D02*
G01X25327Y12377D01*
G01X25304Y11990D02*
G01X25440Y11854D01*
G01X25690Y12377D02*
G01X25918Y12377D01*
G01X25690Y12377D02*
G01X25668Y12172D01*
G01X25690Y12195D02*
G01X25668Y12172D01*
G01X25759Y12218D02*
G01X25690Y12195D01*
G01X25827Y12218D02*
G01X25759Y12218D01*
G01X25827Y12218D02*
G01X25895Y12195D01*
G01X25895Y12195D02*
G01X25940Y12150D01*
G01X25940Y12150D02*
G01X25963Y12081D01*
G01X25963Y12081D02*
G01X25963Y12036D01*
G01X25963Y12036D02*
G01X25940Y11968D01*
G01X25940Y11968D02*
G01X25895Y11922D01*
G01X25895Y11922D02*
G01X25827Y11900D01*
G01X25759Y11900D02*
G01X25827Y11900D01*
G01X25690Y11922D02*
G01X25759Y11900D01*
G01X25668Y11945D02*
G01X25690Y11922D01*
G01X25645Y11990D02*
G01X25668Y11945D01*
G04 Draw part D7*
G04 draw part outline for part D7*
G54D12*
G01X10600Y18700D02*
G01X10600Y17200D01*
G01X10600Y18700D02*
G01X10601Y18728D01*
G01X10605Y18755D01*
G01X10612Y18783D01*
G01X10622Y18811D01*
G01X10635Y18838D01*
G01X10650Y18865D01*
G01X10668Y18891D01*
G01X10689Y18916D01*
G01X10712Y18941D01*
G01X10737Y18966D01*
G01X10765Y18989D01*
G01X10796Y19011D01*
G01X10828Y19033D01*
G01X10863Y19053D01*
G01X10900Y19072D01*
G01X10938Y19090D01*
G01X10979Y19107D01*
G01X11021Y19123D01*
G01X11064Y19137D01*
G01X11109Y19150D01*
G01X11155Y19161D01*
G01X11202Y19171D01*
G01X11250Y19180D01*
G01X11299Y19187D01*
G01X11349Y19192D01*
G01X11399Y19196D01*
G01X11449Y19199D01*
G01X11500Y19200D01*
G01X11500Y19200D02*
G01X11535Y19199D01*
G01X11571Y19196D01*
G01X11606Y19193D01*
G01X11642Y19187D01*
G01X11677Y19180D01*
G01X11712Y19172D01*
G01X11747Y19162D01*
G01X11781Y19151D01*
G01X11815Y19138D01*
G01X11849Y19124D01*
G01X11882Y19108D01*
G01X11915Y19091D01*
G01X11947Y19073D01*
G01X11979Y19053D01*
G01X12010Y19032D01*
G01X12040Y19009D01*
G01X12070Y18985D01*
G01X12099Y18960D01*
G01X12127Y18934D01*
G01X12154Y18906D01*
G01X12181Y18878D01*
G01X12207Y18848D01*
G01X12231Y18817D01*
G01X12255Y18785D01*
G01X12278Y18752D01*
G01X12300Y18719D01*
G01X12321Y18684D01*
G01X12341Y18648D01*
G01X12360Y18612D01*
G01X12377Y18575D01*
G01X12394Y18537D01*
G01X12409Y18498D01*
G01X12423Y18459D01*
G01X12436Y18419D01*
G01X12448Y18378D01*
G01X12459Y18338D01*
G01X12468Y18296D01*
G01X12477Y18255D01*
G01X12484Y18213D01*
G01X12489Y18170D01*
G01X12494Y18128D01*
G01X12497Y18085D01*
G01X12499Y18042D01*
G01X12500Y18000D01*
G01X12500Y18000D02*
G01X12499Y17957D01*
G01X12497Y17914D01*
G01X12494Y17871D01*
G01X12489Y17829D01*
G01X12484Y17786D01*
G01X12477Y17744D01*
G01X12468Y17703D01*
G01X12459Y17661D01*
G01X12448Y17621D01*
G01X12436Y17580D01*
G01X12423Y17540D01*
G01X12409Y17501D01*
G01X12394Y17462D01*
G01X12377Y17424D01*
G01X12360Y17387D01*
G01X12341Y17351D01*
G01X12321Y17315D01*
G01X12300Y17280D01*
G01X12278Y17247D01*
G01X12255Y17214D01*
G01X12231Y17182D01*
G01X12207Y17151D01*
G01X12181Y17121D01*
G01X12154Y17093D01*
G01X12127Y17065D01*
G01X12099Y17039D01*
G01X12070Y17014D01*
G01X12040Y16990D01*
G01X12010Y16967D01*
G01X11979Y16946D01*
G01X11947Y16926D01*
G01X11915Y16908D01*
G01X11882Y16891D01*
G01X11849Y16875D01*
G01X11815Y16861D01*
G01X11781Y16848D01*
G01X11747Y16837D01*
G01X11712Y16827D01*
G01X11677Y16819D01*
G01X11642Y16812D01*
G01X11606Y16806D01*
G01X11571Y16803D01*
G01X11535Y16800D01*
G01X11500Y16800D01*
G01X11500Y16800D02*
G01X11449Y16800D01*
G01X11399Y16803D01*
G01X11349Y16807D01*
G01X11299Y16812D01*
G01X11250Y16819D01*
G01X11202Y16828D01*
G01X11155Y16838D01*
G01X11109Y16849D01*
G01X11064Y16862D01*
G01X11021Y16876D01*
G01X10979Y16892D01*
G01X10938Y16909D01*
G01X10900Y16927D01*
G01X10863Y16946D01*
G01X10828Y16966D01*
G01X10796Y16988D01*
G01X10765Y17010D01*
G01X10737Y17033D01*
G01X10712Y17058D01*
G01X10689Y17083D01*
G01X10668Y17108D01*
G01X10650Y17134D01*
G01X10635Y17161D01*
G01X10622Y17188D01*
G01X10612Y17216D01*
G01X10605Y17244D01*
G01X10601Y17271D01*
G01X10600Y17300D01*
G04 draw reference designator for part D7*
G54D10*
G01X12500Y17477D02*
G01X12500Y17000D01*
G01X12659Y17477D02*
G01X12500Y17477D01*
G01X12659Y17477D02*
G01X12727Y17454D01*
G01X12727Y17454D02*
G01X12772Y17409D01*
G01X12772Y17409D02*
G01X12795Y17363D01*
G01X12795Y17363D02*
G01X12818Y17295D01*
G01X12818Y17295D02*
G01X12818Y17181D01*
G01X12818Y17181D02*
G01X12795Y17113D01*
G01X12795Y17113D02*
G01X12772Y17068D01*
G01X12772Y17068D02*
G01X12727Y17022D01*
G01X12727Y17022D02*
G01X12659Y17000D01*
G01X12500Y17000D02*
G01X12659Y17000D01*
G01X13318Y17477D02*
G01X13090Y17000D01*
G01X13318Y17477D02*
G01X13000Y17477D01*
G04 Draw part J11*
G04 draw part outline for part J11*
G04 draw reference designator for part J11*
G54D11*
G01X2927Y21077D02*
G01X2927Y20713D01*
G01X2927Y20713D02*
G01X2904Y20645D01*
G01X2904Y20645D02*
G01X2881Y20622D01*
G01X2881Y20622D02*
G01X2836Y20600D01*
G01X2790Y20600D02*
G01X2836Y20600D01*
G01X2745Y20622D02*
G01X2790Y20600D01*
G01X2722Y20645D02*
G01X2745Y20622D01*
G01X2700Y20713D02*
G01X2722Y20645D01*
G01X2700Y20759D02*
G01X2700Y20713D01*
G01X3154Y21009D02*
G01X3109Y20986D01*
G01X3222Y21077D02*
G01X3154Y21009D01*
G01X3222Y21077D02*
G01X3222Y20600D01*
G01X3450Y21009D02*
G01X3404Y20986D01*
G01X3518Y21077D02*
G01X3450Y21009D01*
G01X3518Y21077D02*
G01X3518Y20600D01*
G04 Draw part C5*
G04 draw part outline for part C5*
G01X3945Y18765D02*
G01X3945Y20103D01*
G01X3945Y20103D02*
G01X4654Y20103D01*
G01X4654Y20103D02*
G01X4654Y18765D01*
G01X4654Y18765D02*
G01X3945Y18765D01*
G04 draw reference designator for part C5*
G01X4218Y20909D02*
G01X4240Y20863D01*
G01X4172Y20954D02*
G01X4218Y20909D01*
G01X4127Y20977D02*
G01X4172Y20954D01*
G01X4036Y20977D02*
G01X4127Y20977D01*
G01X4036Y20977D02*
G01X3990Y20954D01*
G01X3990Y20954D02*
G01X3945Y20909D01*
G01X3945Y20909D02*
G01X3922Y20863D01*
G01X3922Y20863D02*
G01X3900Y20795D01*
G01X3900Y20795D02*
G01X3900Y20681D01*
G01X3900Y20681D02*
G01X3922Y20613D01*
G01X3922Y20613D02*
G01X3945Y20568D01*
G01X3945Y20568D02*
G01X3990Y20522D01*
G01X3990Y20522D02*
G01X4036Y20500D01*
G01X4127Y20500D02*
G01X4036Y20500D01*
G01X4172Y20522D02*
G01X4127Y20500D01*
G01X4218Y20568D02*
G01X4172Y20522D01*
G01X4240Y20613D02*
G01X4218Y20568D01*
G01X4468Y20977D02*
G01X4695Y20977D01*
G01X4468Y20977D02*
G01X4445Y20772D01*
G01X4468Y20795D02*
G01X4445Y20772D01*
G01X4536Y20818D02*
G01X4468Y20795D01*
G01X4604Y20818D02*
G01X4536Y20818D01*
G01X4604Y20818D02*
G01X4672Y20795D01*
G01X4672Y20795D02*
G01X4718Y20750D01*
G01X4718Y20750D02*
G01X4740Y20681D01*
G01X4740Y20681D02*
G01X4740Y20636D01*
G01X4740Y20636D02*
G01X4718Y20568D01*
G01X4718Y20568D02*
G01X4672Y20522D01*
G01X4672Y20522D02*
G01X4604Y20500D01*
G01X4536Y20500D02*
G01X4604Y20500D01*
G01X4468Y20522D02*
G01X4536Y20500D01*
G01X4445Y20545D02*
G01X4468Y20522D01*
G01X4422Y20590D02*
G01X4445Y20545D01*
G04 Draw part C6*
G04 draw part outline for part C6*
G01X10665Y3354D02*
G01X12003Y3354D01*
G01X12003Y3354D02*
G01X12003Y2645D01*
G01X12003Y2645D02*
G01X10665Y2645D01*
G01X10665Y2645D02*
G01X10665Y3354D01*
G04 draw reference designator for part C6*
G01X11318Y2409D02*
G01X11340Y2363D01*
G01X11272Y2454D02*
G01X11318Y2409D01*
G01X11227Y2477D02*
G01X11272Y2454D01*
G01X11136Y2477D02*
G01X11227Y2477D01*
G01X11136Y2477D02*
G01X11090Y2454D01*
G01X11090Y2454D02*
G01X11045Y2409D01*
G01X11045Y2409D02*
G01X11022Y2363D01*
G01X11022Y2363D02*
G01X11000Y2295D01*
G01X11000Y2295D02*
G01X11000Y2181D01*
G01X11000Y2181D02*
G01X11022Y2113D01*
G01X11022Y2113D02*
G01X11045Y2068D01*
G01X11045Y2068D02*
G01X11090Y2022D01*
G01X11090Y2022D02*
G01X11136Y2000D01*
G01X11227Y2000D02*
G01X11136Y2000D01*
G01X11272Y2022D02*
G01X11227Y2000D01*
G01X11318Y2068D02*
G01X11272Y2022D01*
G01X11340Y2113D02*
G01X11318Y2068D01*
G01X11772Y2454D02*
G01X11795Y2409D01*
G01X11704Y2477D02*
G01X11772Y2454D01*
G01X11659Y2477D02*
G01X11704Y2477D01*
G01X11659Y2477D02*
G01X11590Y2454D01*
G01X11590Y2454D02*
G01X11545Y2386D01*
G01X11545Y2386D02*
G01X11522Y2272D01*
G01X11522Y2272D02*
G01X11522Y2159D01*
G01X11522Y2159D02*
G01X11545Y2068D01*
G01X11545Y2068D02*
G01X11590Y2022D01*
G01X11590Y2022D02*
G01X11659Y2000D01*
G01X11681Y2000D02*
G01X11659Y2000D01*
G01X11750Y2022D02*
G01X11681Y2000D01*
G01X11795Y2068D02*
G01X11750Y2022D01*
G01X11818Y2136D02*
G01X11795Y2068D01*
G01X11818Y2159D02*
G01X11818Y2136D01*
G01X11795Y2227D02*
G01X11818Y2159D01*
G01X11750Y2272D02*
G01X11795Y2227D01*
G01X11681Y2295D02*
G01X11750Y2272D01*
G01X11659Y2295D02*
G01X11681Y2295D01*
G01X11659Y2295D02*
G01X11590Y2272D01*
G01X11590Y2272D02*
G01X11545Y2227D01*
G01X11545Y2227D02*
G01X11522Y2159D01*
G04 Draw part C7*
G04 draw part outline for part C7*
G01X11454Y5434D02*
G01X11454Y4096D01*
G01X11454Y4096D02*
G01X10745Y4096D01*
G01X10745Y4096D02*
G01X10745Y5434D01*
G01X10745Y5434D02*
G01X11454Y5434D01*
G04 draw reference designator for part C7*
G01X10018Y5509D02*
G01X10040Y5463D01*
G01X9972Y5554D02*
G01X10018Y5509D01*
G01X9927Y5577D02*
G01X9972Y5554D01*
G01X9836Y5577D02*
G01X9927Y5577D01*
G01X9836Y5577D02*
G01X9790Y5554D01*
G01X9790Y5554D02*
G01X9745Y5509D01*
G01X9745Y5509D02*
G01X9722Y5463D01*
G01X9722Y5463D02*
G01X9700Y5395D01*
G01X9700Y5395D02*
G01X9700Y5281D01*
G01X9700Y5281D02*
G01X9722Y5213D01*
G01X9722Y5213D02*
G01X9745Y5168D01*
G01X9745Y5168D02*
G01X9790Y5122D01*
G01X9790Y5122D02*
G01X9836Y5100D01*
G01X9927Y5100D02*
G01X9836Y5100D01*
G01X9972Y5122D02*
G01X9927Y5100D01*
G01X10018Y5168D02*
G01X9972Y5122D01*
G01X10040Y5213D02*
G01X10018Y5168D01*
G01X10540Y5577D02*
G01X10313Y5100D01*
G01X10540Y5577D02*
G01X10222Y5577D01*
G04 Draw part J13*
G04 draw part outline for part J13*
G04 draw reference designator for part J13*
G01X20127Y3077D02*
G01X20127Y2713D01*
G01X20127Y2713D02*
G01X20104Y2645D01*
G01X20104Y2645D02*
G01X20081Y2622D01*
G01X20081Y2622D02*
G01X20036Y2600D01*
G01X19990Y2600D02*
G01X20036Y2600D01*
G01X19945Y2622D02*
G01X19990Y2600D01*
G01X19922Y2645D02*
G01X19945Y2622D01*
G01X19900Y2713D02*
G01X19922Y2645D01*
G01X19900Y2759D02*
G01X19900Y2713D01*
G01X20354Y3009D02*
G01X20309Y2986D01*
G01X20422Y3077D02*
G01X20354Y3009D01*
G01X20422Y3077D02*
G01X20422Y2600D01*
G01X20900Y3077D02*
G01X20650Y3077D01*
G01X20900Y3077D02*
G01X20763Y2895D01*
G01X20831Y2895D02*
G01X20763Y2895D01*
G01X20831Y2895D02*
G01X20877Y2872D01*
G01X20877Y2872D02*
G01X20900Y2850D01*
G01X20900Y2850D02*
G01X20922Y2781D01*
G01X20922Y2781D02*
G01X20922Y2736D01*
G01X20922Y2736D02*
G01X20900Y2668D01*
G01X20900Y2668D02*
G01X20854Y2622D01*
G01X20854Y2622D02*
G01X20786Y2600D01*
G01X20718Y2600D02*
G01X20786Y2600D01*
G01X20650Y2622D02*
G01X20718Y2600D01*
G01X20627Y2645D02*
G01X20650Y2622D01*
G01X20604Y2690D02*
G01X20627Y2645D01*
G04 Draw part C8*
G04 draw part outline for part C8*
G01X24565Y3354D02*
G01X25903Y3354D01*
G01X25903Y3354D02*
G01X25903Y2645D01*
G01X25903Y2645D02*
G01X24565Y2645D01*
G01X24565Y2645D02*
G01X24565Y3354D01*
G04 draw reference designator for part C8*
G01X24618Y2409D02*
G01X24640Y2363D01*
G01X24572Y2454D02*
G01X24618Y2409D01*
G01X24527Y2477D02*
G01X24572Y2454D01*
G01X24436Y2477D02*
G01X24527Y2477D01*
G01X24436Y2477D02*
G01X24390Y2454D01*
G01X24390Y2454D02*
G01X24345Y2409D01*
G01X24345Y2409D02*
G01X24322Y2363D01*
G01X24322Y2363D02*
G01X24300Y2295D01*
G01X24300Y2295D02*
G01X24300Y2181D01*
G01X24300Y2181D02*
G01X24322Y2113D01*
G01X24322Y2113D02*
G01X24345Y2068D01*
G01X24345Y2068D02*
G01X24390Y2022D01*
G01X24390Y2022D02*
G01X24436Y2000D01*
G01X24527Y2000D02*
G01X24436Y2000D01*
G01X24572Y2022D02*
G01X24527Y2000D01*
G01X24618Y2068D02*
G01X24572Y2022D01*
G01X24640Y2113D02*
G01X24618Y2068D01*
G01X24936Y2477D02*
G01X24868Y2454D01*
G01X24868Y2454D02*
G01X24845Y2409D01*
G01X24845Y2409D02*
G01X24845Y2363D01*
G01X24845Y2363D02*
G01X24868Y2318D01*
G01X24868Y2318D02*
G01X24913Y2295D01*
G01X24913Y2295D02*
G01X25004Y2272D01*
G01X25004Y2272D02*
G01X25072Y2250D01*
G01X25072Y2250D02*
G01X25118Y2204D01*
G01X25118Y2204D02*
G01X25140Y2159D01*
G01X25140Y2159D02*
G01X25140Y2090D01*
G01X25140Y2090D02*
G01X25118Y2045D01*
G01X25118Y2045D02*
G01X25095Y2022D01*
G01X25095Y2022D02*
G01X25027Y2000D01*
G01X24936Y2000D02*
G01X25027Y2000D01*
G01X24868Y2022D02*
G01X24936Y2000D01*
G01X24845Y2045D02*
G01X24868Y2022D01*
G01X24822Y2090D02*
G01X24845Y2045D01*
G01X24822Y2159D02*
G01X24822Y2090D01*
G01X24845Y2204D02*
G01X24822Y2159D01*
G01X24890Y2250D02*
G01X24845Y2204D01*
G01X24959Y2272D02*
G01X24890Y2250D01*
G01X25050Y2295D02*
G01X24959Y2272D01*
G01X25095Y2318D02*
G01X25050Y2295D01*
G01X25118Y2363D02*
G01X25095Y2318D01*
G01X25118Y2409D02*
G01X25118Y2363D01*
G01X25095Y2454D02*
G01X25118Y2409D01*
G01X25027Y2477D02*
G01X25095Y2454D01*
G01X24936Y2477D02*
G01X25027Y2477D01*
G04 Draw part C9*
G04 draw part outline for part C9*
G01X24545Y3765D02*
G01X24545Y5103D01*
G01X24545Y5103D02*
G01X25254Y5103D01*
G01X25254Y5103D02*
G01X25254Y3765D01*
G01X25254Y3765D02*
G01X24545Y3765D01*
G04 draw reference designator for part C9*
G01X24018Y5309D02*
G01X24040Y5263D01*
G01X23972Y5354D02*
G01X24018Y5309D01*
G01X23927Y5377D02*
G01X23972Y5354D01*
G01X23836Y5377D02*
G01X23927Y5377D01*
G01X23836Y5377D02*
G01X23790Y5354D01*
G01X23790Y5354D02*
G01X23745Y5309D01*
G01X23745Y5309D02*
G01X23722Y5263D01*
G01X23722Y5263D02*
G01X23700Y5195D01*
G01X23700Y5195D02*
G01X23700Y5081D01*
G01X23700Y5081D02*
G01X23722Y5013D01*
G01X23722Y5013D02*
G01X23745Y4968D01*
G01X23745Y4968D02*
G01X23790Y4922D01*
G01X23790Y4922D02*
G01X23836Y4900D01*
G01X23927Y4900D02*
G01X23836Y4900D01*
G01X23972Y4922D02*
G01X23927Y4900D01*
G01X24018Y4968D02*
G01X23972Y4922D01*
G01X24040Y5013D02*
G01X24018Y4968D01*
G01X24518Y5218D02*
G01X24495Y5150D01*
G01X24495Y5150D02*
G01X24450Y5104D01*
G01X24450Y5104D02*
G01X24381Y5081D01*
G01X24359Y5081D02*
G01X24381Y5081D01*
G01X24290Y5104D02*
G01X24359Y5081D01*
G01X24245Y5150D02*
G01X24290Y5104D01*
G01X24222Y5218D02*
G01X24245Y5150D01*
G01X24222Y5240D02*
G01X24222Y5218D01*
G01X24245Y5309D02*
G01X24222Y5240D01*
G01X24290Y5354D02*
G01X24245Y5309D01*
G01X24359Y5377D02*
G01X24290Y5354D01*
G01X24381Y5377D02*
G01X24359Y5377D01*
G01X24381Y5377D02*
G01X24450Y5354D01*
G01X24450Y5354D02*
G01X24495Y5309D01*
G01X24495Y5309D02*
G01X24518Y5218D01*
G01X24518Y5218D02*
G01X24518Y5104D01*
G01X24518Y5104D02*
G01X24495Y4990D01*
G01X24495Y4990D02*
G01X24450Y4922D01*
G01X24450Y4922D02*
G01X24381Y4900D01*
G01X24336Y4900D02*
G01X24381Y4900D01*
G01X24268Y4922D02*
G01X24336Y4900D01*
G01X24245Y4968D02*
G01X24268Y4922D01*
G04 Draw part J14*
G04 draw part outline for part J14*
G04 draw reference designator for part J14*
G01X20127Y6177D02*
G01X20127Y5813D01*
G01X20127Y5813D02*
G01X20104Y5745D01*
G01X20104Y5745D02*
G01X20081Y5722D01*
G01X20081Y5722D02*
G01X20036Y5700D01*
G01X19990Y5700D02*
G01X20036Y5700D01*
G01X19945Y5722D02*
G01X19990Y5700D01*
G01X19922Y5745D02*
G01X19945Y5722D01*
G01X19900Y5813D02*
G01X19922Y5745D01*
G01X19900Y5859D02*
G01X19900Y5813D01*
G01X20354Y6109D02*
G01X20309Y6086D01*
G01X20422Y6177D02*
G01X20354Y6109D01*
G01X20422Y6177D02*
G01X20422Y5700D01*
G01X20831Y6177D02*
G01X20604Y5859D01*
G01X20945Y5859D02*
G01X20604Y5859D01*
G01X20831Y6177D02*
G01X20831Y5700D01*
G04 Draw part C10*
G04 draw part outline for part C10*
G01X18445Y4865D02*
G01X18445Y6203D01*
G01X18445Y6203D02*
G01X19154Y6203D01*
G01X19154Y6203D02*
G01X19154Y4865D01*
G01X19154Y4865D02*
G01X18445Y4865D01*
G04 draw reference designator for part C10*
G01X18718Y6609D02*
G01X18740Y6563D01*
G01X18672Y6654D02*
G01X18718Y6609D01*
G01X18627Y6677D02*
G01X18672Y6654D01*
G01X18536Y6677D02*
G01X18627Y6677D01*
G01X18536Y6677D02*
G01X18490Y6654D01*
G01X18490Y6654D02*
G01X18445Y6609D01*
G01X18445Y6609D02*
G01X18422Y6563D01*
G01X18422Y6563D02*
G01X18400Y6495D01*
G01X18400Y6495D02*
G01X18400Y6381D01*
G01X18400Y6381D02*
G01X18422Y6313D01*
G01X18422Y6313D02*
G01X18445Y6268D01*
G01X18445Y6268D02*
G01X18490Y6222D01*
G01X18490Y6222D02*
G01X18536Y6200D01*
G01X18627Y6200D02*
G01X18536Y6200D01*
G01X18672Y6222D02*
G01X18627Y6200D01*
G01X18718Y6268D02*
G01X18672Y6222D01*
G01X18740Y6313D02*
G01X18718Y6268D01*
G01X18968Y6609D02*
G01X18922Y6586D01*
G01X19036Y6677D02*
G01X18968Y6609D01*
G01X19036Y6677D02*
G01X19036Y6200D01*
G01X19354Y6677D02*
G01X19286Y6654D01*
G01X19286Y6654D02*
G01X19240Y6586D01*
G01X19240Y6586D02*
G01X19218Y6472D01*
G01X19218Y6472D02*
G01X19218Y6404D01*
G01X19218Y6404D02*
G01X19240Y6290D01*
G01X19240Y6290D02*
G01X19286Y6222D01*
G01X19286Y6222D02*
G01X19354Y6200D01*
G01X19400Y6200D02*
G01X19354Y6200D01*
G01X19468Y6222D02*
G01X19400Y6200D01*
G01X19513Y6290D02*
G01X19468Y6222D01*
G01X19536Y6404D02*
G01X19513Y6290D01*
G01X19536Y6472D02*
G01X19536Y6404D01*
G01X19513Y6586D02*
G01X19536Y6472D01*
G01X19468Y6654D02*
G01X19513Y6586D01*
G01X19400Y6677D02*
G01X19468Y6654D01*
G01X19354Y6677D02*
G01X19400Y6677D01*
G04 Draw part C11*
G04 draw part outline for part C11*
G01X16945Y4765D02*
G01X16945Y6103D01*
G01X16945Y6103D02*
G01X17654Y6103D01*
G01X17654Y6103D02*
G01X17654Y4765D01*
G01X17654Y4765D02*
G01X16945Y4765D01*
G04 draw reference designator for part C11*
G01X17118Y6609D02*
G01X17140Y6563D01*
G01X17072Y6654D02*
G01X17118Y6609D01*
G01X17027Y6677D02*
G01X17072Y6654D01*
G01X16936Y6677D02*
G01X17027Y6677D01*
G01X16936Y6677D02*
G01X16890Y6654D01*
G01X16890Y6654D02*
G01X16845Y6609D01*
G01X16845Y6609D02*
G01X16822Y6563D01*
G01X16822Y6563D02*
G01X16800Y6495D01*
G01X16800Y6495D02*
G01X16800Y6381D01*
G01X16800Y6381D02*
G01X16822Y6313D01*
G01X16822Y6313D02*
G01X16845Y6268D01*
G01X16845Y6268D02*
G01X16890Y6222D01*
G01X16890Y6222D02*
G01X16936Y6200D01*
G01X17027Y6200D02*
G01X16936Y6200D01*
G01X17072Y6222D02*
G01X17027Y6200D01*
G01X17118Y6268D02*
G01X17072Y6222D01*
G01X17140Y6313D02*
G01X17118Y6268D01*
G01X17368Y6609D02*
G01X17322Y6586D01*
G01X17436Y6677D02*
G01X17368Y6609D01*
G01X17436Y6677D02*
G01X17436Y6200D01*
G01X17663Y6609D02*
G01X17618Y6586D01*
G01X17731Y6677D02*
G01X17663Y6609D01*
G01X17731Y6677D02*
G01X17731Y6200D01*
G04 Draw part R20*
G04 draw part outline for part R20*
G01X9154Y18534D02*
G01X9154Y17196D01*
G01X9154Y17196D02*
G01X8445Y17196D01*
G01X8445Y17196D02*
G01X8445Y18534D01*
G01X8445Y18534D02*
G01X9154Y18534D01*
G04 draw reference designator for part R20*
G01X8300Y19177D02*
G01X8300Y18700D01*
G01X8504Y19177D02*
G01X8300Y19177D01*
G01X8504Y19177D02*
G01X8572Y19154D01*
G01X8572Y19154D02*
G01X8595Y19131D01*
G01X8595Y19131D02*
G01X8618Y19086D01*
G01X8618Y19086D02*
G01X8618Y19040D01*
G01X8618Y19040D02*
G01X8595Y18995D01*
G01X8595Y18995D02*
G01X8572Y18972D01*
G01X8572Y18972D02*
G01X8504Y18950D01*
G01X8300Y18950D02*
G01X8504Y18950D01*
G01X8459Y18950D02*
G01X8618Y18700D01*
G01X8822Y19086D02*
G01X8822Y19063D01*
G01X8845Y19131D02*
G01X8822Y19086D01*
G01X8868Y19154D02*
G01X8845Y19131D01*
G01X8913Y19177D02*
G01X8868Y19154D01*
G01X9004Y19177D02*
G01X8913Y19177D01*
G01X9004Y19177D02*
G01X9050Y19154D01*
G01X9050Y19154D02*
G01X9072Y19131D01*
G01X9072Y19131D02*
G01X9095Y19086D01*
G01X9095Y19086D02*
G01X9095Y19040D01*
G01X9095Y19040D02*
G01X9072Y18995D01*
G01X9072Y18995D02*
G01X9027Y18927D01*
G01X9027Y18927D02*
G01X8800Y18700D01*
G01X9118Y18700D02*
G01X8800Y18700D01*
G01X9436Y19177D02*
G01X9368Y19154D01*
G01X9368Y19154D02*
G01X9322Y19086D01*
G01X9322Y19086D02*
G01X9300Y18972D01*
G01X9300Y18972D02*
G01X9300Y18904D01*
G01X9300Y18904D02*
G01X9322Y18790D01*
G01X9322Y18790D02*
G01X9368Y18722D01*
G01X9368Y18722D02*
G01X9436Y18700D01*
G01X9481Y18700D02*
G01X9436Y18700D01*
G01X9550Y18722D02*
G01X9481Y18700D01*
G01X9595Y18790D02*
G01X9550Y18722D01*
G01X9618Y18904D02*
G01X9595Y18790D01*
G01X9618Y18972D02*
G01X9618Y18904D01*
G01X9595Y19086D02*
G01X9618Y18972D01*
G01X9550Y19154D02*
G01X9595Y19086D01*
G01X9481Y19177D02*
G01X9550Y19154D01*
G01X9436Y19177D02*
G01X9481Y19177D01*
G04 Draw part R19*
G04 draw part outline for part R19*
G01X7954Y18434D02*
G01X7954Y17096D01*
G01X7954Y17096D02*
G01X7245Y17096D01*
G01X7245Y17096D02*
G01X7245Y18434D01*
G01X7245Y18434D02*
G01X7954Y18434D01*
G04 draw reference designator for part R19*
G01X6900Y19077D02*
G01X6900Y18600D01*
G01X7104Y19077D02*
G01X6900Y19077D01*
G01X7104Y19077D02*
G01X7172Y19054D01*
G01X7172Y19054D02*
G01X7195Y19031D01*
G01X7195Y19031D02*
G01X7218Y18986D01*
G01X7218Y18986D02*
G01X7218Y18940D01*
G01X7218Y18940D02*
G01X7195Y18895D01*
G01X7195Y18895D02*
G01X7172Y18872D01*
G01X7172Y18872D02*
G01X7104Y18850D01*
G01X6900Y18850D02*
G01X7104Y18850D01*
G01X7059Y18850D02*
G01X7218Y18600D01*
G01X7445Y19009D02*
G01X7400Y18986D01*
G01X7513Y19077D02*
G01X7445Y19009D01*
G01X7513Y19077D02*
G01X7513Y18600D01*
G01X7990Y18918D02*
G01X7968Y18850D01*
G01X7968Y18850D02*
G01X7922Y18804D01*
G01X7922Y18804D02*
G01X7854Y18781D01*
G01X7831Y18781D02*
G01X7854Y18781D01*
G01X7763Y18804D02*
G01X7831Y18781D01*
G01X7718Y18850D02*
G01X7763Y18804D01*
G01X7695Y18918D02*
G01X7718Y18850D01*
G01X7695Y18940D02*
G01X7695Y18918D01*
G01X7718Y19009D02*
G01X7695Y18940D01*
G01X7763Y19054D02*
G01X7718Y19009D01*
G01X7831Y19077D02*
G01X7763Y19054D01*
G01X7854Y19077D02*
G01X7831Y19077D01*
G01X7854Y19077D02*
G01X7922Y19054D01*
G01X7922Y19054D02*
G01X7968Y19009D01*
G01X7968Y19009D02*
G01X7990Y18918D01*
G01X7990Y18918D02*
G01X7990Y18804D01*
G01X7990Y18804D02*
G01X7968Y18690D01*
G01X7968Y18690D02*
G01X7922Y18622D01*
G01X7922Y18622D02*
G01X7854Y18600D01*
G01X7809Y18600D02*
G01X7854Y18600D01*
G01X7740Y18622D02*
G01X7809Y18600D01*
G01X7718Y18668D02*
G01X7740Y18622D01*
G04 Draw part R7*
G04 draw part outline for part R7*
G01X5465Y18154D02*
G01X6803Y18154D01*
G01X6803Y18154D02*
G01X6803Y17445D01*
G01X6803Y17445D02*
G01X5465Y17445D01*
G01X5465Y17445D02*
G01X5465Y18154D01*
G04 draw reference designator for part R7*
G01X5400Y17377D02*
G01X5400Y16900D01*
G01X5604Y17377D02*
G01X5400Y17377D01*
G01X5604Y17377D02*
G01X5672Y17354D01*
G01X5672Y17354D02*
G01X5695Y17331D01*
G01X5695Y17331D02*
G01X5718Y17286D01*
G01X5718Y17286D02*
G01X5718Y17240D01*
G01X5718Y17240D02*
G01X5695Y17195D01*
G01X5695Y17195D02*
G01X5672Y17172D01*
G01X5672Y17172D02*
G01X5604Y17150D01*
G01X5400Y17150D02*
G01X5604Y17150D01*
G01X5559Y17150D02*
G01X5718Y16900D01*
G01X6218Y17377D02*
G01X5990Y16900D01*
G01X6218Y17377D02*
G01X5900Y17377D01*
G04 Draw part R8*
G04 draw part outline for part R8*
G01X4965Y19454D02*
G01X6303Y19454D01*
G01X6303Y19454D02*
G01X6303Y18745D01*
G01X6303Y18745D02*
G01X4965Y18745D01*
G01X4965Y18745D02*
G01X4965Y19454D01*
G04 draw reference designator for part R8*
G01X5300Y18777D02*
G01X5300Y18300D01*
G01X5504Y18777D02*
G01X5300Y18777D01*
G01X5504Y18777D02*
G01X5572Y18754D01*
G01X5572Y18754D02*
G01X5595Y18731D01*
G01X5595Y18731D02*
G01X5618Y18686D01*
G01X5618Y18686D02*
G01X5618Y18640D01*
G01X5618Y18640D02*
G01X5595Y18595D01*
G01X5595Y18595D02*
G01X5572Y18572D01*
G01X5572Y18572D02*
G01X5504Y18550D01*
G01X5300Y18550D02*
G01X5504Y18550D01*
G01X5459Y18550D02*
G01X5618Y18300D01*
G01X5913Y18777D02*
G01X5845Y18754D01*
G01X5845Y18754D02*
G01X5822Y18709D01*
G01X5822Y18709D02*
G01X5822Y18663D01*
G01X5822Y18663D02*
G01X5845Y18618D01*
G01X5845Y18618D02*
G01X5890Y18595D01*
G01X5890Y18595D02*
G01X5981Y18572D01*
G01X5981Y18572D02*
G01X6050Y18550D01*
G01X6050Y18550D02*
G01X6095Y18504D01*
G01X6095Y18504D02*
G01X6118Y18459D01*
G01X6118Y18459D02*
G01X6118Y18390D01*
G01X6118Y18390D02*
G01X6095Y18345D01*
G01X6095Y18345D02*
G01X6072Y18322D01*
G01X6072Y18322D02*
G01X6004Y18300D01*
G01X5913Y18300D02*
G01X6004Y18300D01*
G01X5845Y18322D02*
G01X5913Y18300D01*
G01X5822Y18345D02*
G01X5845Y18322D01*
G01X5800Y18390D02*
G01X5822Y18345D01*
G01X5800Y18459D02*
G01X5800Y18390D01*
G01X5822Y18504D02*
G01X5800Y18459D01*
G01X5868Y18550D02*
G01X5822Y18504D01*
G01X5936Y18572D02*
G01X5868Y18550D01*
G01X6027Y18595D02*
G01X5936Y18572D01*
G01X6072Y18618D02*
G01X6027Y18595D01*
G01X6095Y18663D02*
G01X6072Y18618D01*
G01X6095Y18709D02*
G01X6095Y18663D01*
G01X6072Y18754D02*
G01X6095Y18709D01*
G01X6004Y18777D02*
G01X6072Y18754D01*
G01X5913Y18777D02*
G01X6004Y18777D01*
G04 Draw part R9*
G04 draw part outline for part R9*
G01X4965Y20454D02*
G01X6303Y20454D01*
G01X6303Y20454D02*
G01X6303Y19745D01*
G01X6303Y19745D02*
G01X4965Y19745D01*
G01X4965Y19745D02*
G01X4965Y20454D01*
G04 draw reference designator for part R9*
G01X5600Y20977D02*
G01X5600Y20500D01*
G01X5804Y20977D02*
G01X5600Y20977D01*
G01X5804Y20977D02*
G01X5872Y20954D01*
G01X5872Y20954D02*
G01X5895Y20931D01*
G01X5895Y20931D02*
G01X5918Y20886D01*
G01X5918Y20886D02*
G01X5918Y20840D01*
G01X5918Y20840D02*
G01X5895Y20795D01*
G01X5895Y20795D02*
G01X5872Y20772D01*
G01X5872Y20772D02*
G01X5804Y20750D01*
G01X5600Y20750D02*
G01X5804Y20750D01*
G01X5759Y20750D02*
G01X5918Y20500D01*
G01X6395Y20818D02*
G01X6372Y20750D01*
G01X6372Y20750D02*
G01X6327Y20704D01*
G01X6327Y20704D02*
G01X6259Y20681D01*
G01X6236Y20681D02*
G01X6259Y20681D01*
G01X6168Y20704D02*
G01X6236Y20681D01*
G01X6122Y20750D02*
G01X6168Y20704D01*
G01X6100Y20818D02*
G01X6122Y20750D01*
G01X6100Y20840D02*
G01X6100Y20818D01*
G01X6122Y20909D02*
G01X6100Y20840D01*
G01X6168Y20954D02*
G01X6122Y20909D01*
G01X6236Y20977D02*
G01X6168Y20954D01*
G01X6259Y20977D02*
G01X6236Y20977D01*
G01X6259Y20977D02*
G01X6327Y20954D01*
G01X6327Y20954D02*
G01X6372Y20909D01*
G01X6372Y20909D02*
G01X6395Y20818D01*
G01X6395Y20818D02*
G01X6395Y20704D01*
G01X6395Y20704D02*
G01X6372Y20590D01*
G01X6372Y20590D02*
G01X6327Y20522D01*
G01X6327Y20522D02*
G01X6259Y20500D01*
G01X6213Y20500D02*
G01X6259Y20500D01*
G01X6145Y20522D02*
G01X6213Y20500D01*
G01X6122Y20568D02*
G01X6145Y20522D01*
G04 Draw part R10*
G04 draw part outline for part R10*
G01X13734Y2645D02*
G01X12396Y2645D01*
G01X12396Y2645D02*
G01X12396Y3354D01*
G01X12396Y3354D02*
G01X13734Y3354D01*
G01X13734Y3354D02*
G01X13734Y2645D01*
G04 draw reference designator for part R10*
G01X12400Y2677D02*
G01X12400Y2200D01*
G01X12604Y2677D02*
G01X12400Y2677D01*
G01X12604Y2677D02*
G01X12672Y2654D01*
G01X12672Y2654D02*
G01X12695Y2631D01*
G01X12695Y2631D02*
G01X12718Y2586D01*
G01X12718Y2586D02*
G01X12718Y2540D01*
G01X12718Y2540D02*
G01X12695Y2495D01*
G01X12695Y2495D02*
G01X12672Y2472D01*
G01X12672Y2472D02*
G01X12604Y2450D01*
G01X12400Y2450D02*
G01X12604Y2450D01*
G01X12559Y2450D02*
G01X12718Y2200D01*
G01X12945Y2609D02*
G01X12900Y2586D01*
G01X13013Y2677D02*
G01X12945Y2609D01*
G01X13013Y2677D02*
G01X13013Y2200D01*
G01X13331Y2677D02*
G01X13263Y2654D01*
G01X13263Y2654D02*
G01X13218Y2586D01*
G01X13218Y2586D02*
G01X13195Y2472D01*
G01X13195Y2472D02*
G01X13195Y2404D01*
G01X13195Y2404D02*
G01X13218Y2290D01*
G01X13218Y2290D02*
G01X13263Y2222D01*
G01X13263Y2222D02*
G01X13331Y2200D01*
G01X13377Y2200D02*
G01X13331Y2200D01*
G01X13445Y2222D02*
G01X13377Y2200D01*
G01X13490Y2290D02*
G01X13445Y2222D01*
G01X13513Y2404D02*
G01X13490Y2290D01*
G01X13513Y2472D02*
G01X13513Y2404D01*
G01X13490Y2586D02*
G01X13513Y2472D01*
G01X13445Y2654D02*
G01X13490Y2586D01*
G01X13377Y2677D02*
G01X13445Y2654D01*
G01X13331Y2677D02*
G01X13377Y2677D01*
G04 Draw part R11*
G04 draw part outline for part R11*
G01X11665Y4354D02*
G01X13003Y4354D01*
G01X13003Y4354D02*
G01X13003Y3645D01*
G01X13003Y3645D02*
G01X11665Y3645D01*
G01X11665Y3645D02*
G01X11665Y4354D01*
G04 draw reference designator for part R11*
G01X13200Y4277D02*
G01X13200Y3800D01*
G01X13404Y4277D02*
G01X13200Y4277D01*
G01X13404Y4277D02*
G01X13472Y4254D01*
G01X13472Y4254D02*
G01X13495Y4231D01*
G01X13495Y4231D02*
G01X13518Y4186D01*
G01X13518Y4186D02*
G01X13518Y4140D01*
G01X13518Y4140D02*
G01X13495Y4095D01*
G01X13495Y4095D02*
G01X13472Y4072D01*
G01X13472Y4072D02*
G01X13404Y4050D01*
G01X13200Y4050D02*
G01X13404Y4050D01*
G01X13359Y4050D02*
G01X13518Y3800D01*
G01X13745Y4209D02*
G01X13700Y4186D01*
G01X13813Y4277D02*
G01X13745Y4209D01*
G01X13813Y4277D02*
G01X13813Y3800D01*
G01X14040Y4209D02*
G01X13995Y4186D01*
G01X14109Y4277D02*
G01X14040Y4209D01*
G01X14109Y4277D02*
G01X14109Y3800D01*
G04 Draw part R12*
G04 draw part outline for part R12*
G01X11665Y5554D02*
G01X13003Y5554D01*
G01X13003Y5554D02*
G01X13003Y4845D01*
G01X13003Y4845D02*
G01X11665Y4845D01*
G01X11665Y4845D02*
G01X11665Y5554D01*
G04 draw reference designator for part R12*
G01X13000Y5477D02*
G01X13000Y5000D01*
G01X13204Y5477D02*
G01X13000Y5477D01*
G01X13204Y5477D02*
G01X13272Y5454D01*
G01X13272Y5454D02*
G01X13295Y5431D01*
G01X13295Y5431D02*
G01X13318Y5386D01*
G01X13318Y5386D02*
G01X13318Y5340D01*
G01X13318Y5340D02*
G01X13295Y5295D01*
G01X13295Y5295D02*
G01X13272Y5272D01*
G01X13272Y5272D02*
G01X13204Y5250D01*
G01X13000Y5250D02*
G01X13204Y5250D01*
G01X13159Y5250D02*
G01X13318Y5000D01*
G01X13545Y5409D02*
G01X13500Y5386D01*
G01X13613Y5477D02*
G01X13545Y5409D01*
G01X13613Y5477D02*
G01X13613Y5000D01*
G01X13818Y5386D02*
G01X13818Y5363D01*
G01X13840Y5431D02*
G01X13818Y5386D01*
G01X13863Y5454D02*
G01X13840Y5431D01*
G01X13909Y5477D02*
G01X13863Y5454D01*
G01X14000Y5477D02*
G01X13909Y5477D01*
G01X14000Y5477D02*
G01X14045Y5454D01*
G01X14045Y5454D02*
G01X14068Y5431D01*
G01X14068Y5431D02*
G01X14090Y5386D01*
G01X14090Y5386D02*
G01X14090Y5340D01*
G01X14090Y5340D02*
G01X14068Y5295D01*
G01X14068Y5295D02*
G01X14022Y5227D01*
G01X14022Y5227D02*
G01X13795Y5000D01*
G01X14113Y5000D02*
G01X13795Y5000D01*
G04 Draw part R16*
G04 draw part outline for part R16*
G01X15734Y2545D02*
G01X14396Y2545D01*
G01X14396Y2545D02*
G01X14396Y3254D01*
G01X14396Y3254D02*
G01X15734Y3254D01*
G01X15734Y3254D02*
G01X15734Y2545D01*
G04 draw reference designator for part R16*
G01X15700Y2577D02*
G01X15700Y2100D01*
G01X15904Y2577D02*
G01X15700Y2577D01*
G01X15904Y2577D02*
G01X15972Y2554D01*
G01X15972Y2554D02*
G01X15995Y2531D01*
G01X15995Y2531D02*
G01X16018Y2486D01*
G01X16018Y2486D02*
G01X16018Y2440D01*
G01X16018Y2440D02*
G01X15995Y2395D01*
G01X15995Y2395D02*
G01X15972Y2372D01*
G01X15972Y2372D02*
G01X15904Y2350D01*
G01X15700Y2350D02*
G01X15904Y2350D01*
G01X15859Y2350D02*
G01X16018Y2100D01*
G01X16245Y2509D02*
G01X16200Y2486D01*
G01X16313Y2577D02*
G01X16245Y2509D01*
G01X16313Y2577D02*
G01X16313Y2100D01*
G01X16745Y2554D02*
G01X16768Y2509D01*
G01X16677Y2577D02*
G01X16745Y2554D01*
G01X16631Y2577D02*
G01X16677Y2577D01*
G01X16631Y2577D02*
G01X16563Y2554D01*
G01X16563Y2554D02*
G01X16518Y2486D01*
G01X16518Y2486D02*
G01X16495Y2372D01*
G01X16495Y2372D02*
G01X16495Y2259D01*
G01X16495Y2259D02*
G01X16518Y2168D01*
G01X16518Y2168D02*
G01X16563Y2122D01*
G01X16563Y2122D02*
G01X16631Y2100D01*
G01X16654Y2100D02*
G01X16631Y2100D01*
G01X16722Y2122D02*
G01X16654Y2100D01*
G01X16768Y2168D02*
G01X16722Y2122D01*
G01X16790Y2236D02*
G01X16768Y2168D01*
G01X16790Y2259D02*
G01X16790Y2236D01*
G01X16768Y2327D02*
G01X16790Y2259D01*
G01X16722Y2372D02*
G01X16768Y2327D01*
G01X16654Y2395D02*
G01X16722Y2372D01*
G01X16631Y2395D02*
G01X16654Y2395D01*
G01X16631Y2395D02*
G01X16563Y2372D01*
G01X16563Y2372D02*
G01X16518Y2327D01*
G01X16518Y2327D02*
G01X16495Y2259D01*
G04 Draw part R17*
G04 draw part outline for part R17*
G01X14865Y4254D02*
G01X16203Y4254D01*
G01X16203Y4254D02*
G01X16203Y3545D01*
G01X16203Y3545D02*
G01X14865Y3545D01*
G01X14865Y3545D02*
G01X14865Y4254D01*
G04 draw reference designator for part R17*
G01X15000Y4777D02*
G01X15000Y4300D01*
G01X15204Y4777D02*
G01X15000Y4777D01*
G01X15204Y4777D02*
G01X15272Y4754D01*
G01X15272Y4754D02*
G01X15295Y4731D01*
G01X15295Y4731D02*
G01X15318Y4686D01*
G01X15318Y4686D02*
G01X15318Y4640D01*
G01X15318Y4640D02*
G01X15295Y4595D01*
G01X15295Y4595D02*
G01X15272Y4572D01*
G01X15272Y4572D02*
G01X15204Y4550D01*
G01X15000Y4550D02*
G01X15204Y4550D01*
G01X15159Y4550D02*
G01X15318Y4300D01*
G01X15545Y4709D02*
G01X15500Y4686D01*
G01X15613Y4777D02*
G01X15545Y4709D01*
G01X15613Y4777D02*
G01X15613Y4300D01*
G01X16113Y4777D02*
G01X15886Y4300D01*
G01X16113Y4777D02*
G01X15795Y4777D01*
G04 Draw part R18*
G04 draw part outline for part R18*
G01X16034Y5145D02*
G01X14696Y5145D01*
G01X14696Y5145D02*
G01X14696Y5854D01*
G01X14696Y5854D02*
G01X16034Y5854D01*
G01X16034Y5854D02*
G01X16034Y5145D01*
G04 draw reference designator for part R18*
G01X15100Y6577D02*
G01X15100Y6100D01*
G01X15304Y6577D02*
G01X15100Y6577D01*
G01X15304Y6577D02*
G01X15372Y6554D01*
G01X15372Y6554D02*
G01X15395Y6531D01*
G01X15395Y6531D02*
G01X15418Y6486D01*
G01X15418Y6486D02*
G01X15418Y6440D01*
G01X15418Y6440D02*
G01X15395Y6395D01*
G01X15395Y6395D02*
G01X15372Y6372D01*
G01X15372Y6372D02*
G01X15304Y6350D01*
G01X15100Y6350D02*
G01X15304Y6350D01*
G01X15259Y6350D02*
G01X15418Y6100D01*
G01X15645Y6509D02*
G01X15600Y6486D01*
G01X15713Y6577D02*
G01X15645Y6509D01*
G01X15713Y6577D02*
G01X15713Y6100D01*
G01X16009Y6577D02*
G01X15940Y6554D01*
G01X15940Y6554D02*
G01X15918Y6509D01*
G01X15918Y6509D02*
G01X15918Y6463D01*
G01X15918Y6463D02*
G01X15940Y6418D01*
G01X15940Y6418D02*
G01X15986Y6395D01*
G01X15986Y6395D02*
G01X16077Y6372D01*
G01X16077Y6372D02*
G01X16145Y6350D01*
G01X16145Y6350D02*
G01X16190Y6304D01*
G01X16190Y6304D02*
G01X16213Y6259D01*
G01X16213Y6259D02*
G01X16213Y6190D01*
G01X16213Y6190D02*
G01X16190Y6145D01*
G01X16190Y6145D02*
G01X16168Y6122D01*
G01X16168Y6122D02*
G01X16100Y6100D01*
G01X16009Y6100D02*
G01X16100Y6100D01*
G01X15940Y6122D02*
G01X16009Y6100D01*
G01X15918Y6145D02*
G01X15940Y6122D01*
G01X15895Y6190D02*
G01X15918Y6145D01*
G01X15895Y6259D02*
G01X15895Y6190D01*
G01X15918Y6304D02*
G01X15895Y6259D01*
G01X15963Y6350D02*
G01X15918Y6304D01*
G01X16031Y6372D02*
G01X15963Y6350D01*
G01X16122Y6395D02*
G01X16031Y6372D01*
G01X16168Y6418D02*
G01X16122Y6395D01*
G01X16190Y6463D02*
G01X16168Y6418D01*
G01X16190Y6509D02*
G01X16190Y6463D01*
G01X16168Y6554D02*
G01X16190Y6509D01*
G01X16100Y6577D02*
G01X16168Y6554D01*
G01X16009Y6577D02*
G01X16100Y6577D01*
G04 Draw part R13*
G04 draw part outline for part R13*
G01X27334Y2645D02*
G01X25996Y2645D01*
G01X25996Y2645D02*
G01X25996Y3354D01*
G01X25996Y3354D02*
G01X27334Y3354D01*
G01X27334Y3354D02*
G01X27334Y2645D01*
G04 draw reference designator for part R13*
G01X26200Y2477D02*
G01X26200Y2000D01*
G01X26404Y2477D02*
G01X26200Y2477D01*
G01X26404Y2477D02*
G01X26472Y2454D01*
G01X26472Y2454D02*
G01X26495Y2431D01*
G01X26495Y2431D02*
G01X26518Y2386D01*
G01X26518Y2386D02*
G01X26518Y2340D01*
G01X26518Y2340D02*
G01X26495Y2295D01*
G01X26495Y2295D02*
G01X26472Y2272D01*
G01X26472Y2272D02*
G01X26404Y2250D01*
G01X26200Y2250D02*
G01X26404Y2250D01*
G01X26359Y2250D02*
G01X26518Y2000D01*
G01X26745Y2409D02*
G01X26700Y2386D01*
G01X26813Y2477D02*
G01X26745Y2409D01*
G01X26813Y2477D02*
G01X26813Y2000D01*
G01X27290Y2477D02*
G01X27040Y2477D01*
G01X27290Y2477D02*
G01X27154Y2295D01*
G01X27222Y2295D02*
G01X27154Y2295D01*
G01X27222Y2295D02*
G01X27268Y2272D01*
G01X27268Y2272D02*
G01X27290Y2250D01*
G01X27290Y2250D02*
G01X27313Y2181D01*
G01X27313Y2181D02*
G01X27313Y2136D01*
G01X27313Y2136D02*
G01X27290Y2068D01*
G01X27290Y2068D02*
G01X27245Y2022D01*
G01X27245Y2022D02*
G01X27177Y2000D01*
G01X27109Y2000D02*
G01X27177Y2000D01*
G01X27040Y2022D02*
G01X27109Y2000D01*
G01X27018Y2045D02*
G01X27040Y2022D01*
G01X26995Y2090D02*
G01X27018Y2045D01*
G04 Draw part R14*
G04 draw part outline for part R14*
G01X26554Y5034D02*
G01X26554Y3696D01*
G01X26554Y3696D02*
G01X25845Y3696D01*
G01X25845Y3696D02*
G01X25845Y5034D01*
G01X25845Y5034D02*
G01X26554Y5034D01*
G04 draw reference designator for part R14*
G01X25500Y5477D02*
G01X25500Y5000D01*
G01X25704Y5477D02*
G01X25500Y5477D01*
G01X25704Y5477D02*
G01X25772Y5454D01*
G01X25772Y5454D02*
G01X25795Y5431D01*
G01X25795Y5431D02*
G01X25818Y5386D01*
G01X25818Y5386D02*
G01X25818Y5340D01*
G01X25818Y5340D02*
G01X25795Y5295D01*
G01X25795Y5295D02*
G01X25772Y5272D01*
G01X25772Y5272D02*
G01X25704Y5250D01*
G01X25500Y5250D02*
G01X25704Y5250D01*
G01X25659Y5250D02*
G01X25818Y5000D01*
G01X26045Y5409D02*
G01X26000Y5386D01*
G01X26113Y5477D02*
G01X26045Y5409D01*
G01X26113Y5477D02*
G01X26113Y5000D01*
G01X26522Y5477D02*
G01X26295Y5159D01*
G01X26636Y5159D02*
G01X26295Y5159D01*
G01X26522Y5477D02*
G01X26522Y5000D01*
G04 Draw part R15*
G04 Draw part U2*
G04 draw part outline for part U2*
G01X1690Y19575D02*
G01X1690Y17563D01*
G01X1690Y17563D02*
G01X2477Y17563D01*
G01X2477Y17563D02*
G01X2477Y19575D01*
G01X2477Y19575D02*
G01X1690Y19575D01*
G01X1887Y19575D02*
G01X1887Y19378D01*
G01X1887Y19378D02*
G01X2281Y19378D01*
G01X2281Y19378D02*
G01X2281Y19575D01*
G01X2281Y19575D02*
G01X1887Y19575D01*
G04 draw reference designator for part U2*
G01X1600Y17377D02*
G01X1600Y17036D01*
G01X1600Y17036D02*
G01X1622Y16968D01*
G01X1622Y16968D02*
G01X1668Y16922D01*
G01X1668Y16922D02*
G01X1736Y16900D01*
G01X1781Y16900D02*
G01X1736Y16900D01*
G01X1850Y16922D02*
G01X1781Y16900D01*
G01X1895Y16968D02*
G01X1850Y16922D01*
G01X1918Y17036D02*
G01X1895Y16968D01*
G01X1918Y17377D02*
G01X1918Y17036D01*
G01X2122Y17286D02*
G01X2122Y17263D01*
G01X2145Y17331D02*
G01X2122Y17286D01*
G01X2168Y17354D02*
G01X2145Y17331D01*
G01X2213Y17377D02*
G01X2168Y17354D01*
G01X2304Y17377D02*
G01X2213Y17377D01*
G01X2304Y17377D02*
G01X2350Y17354D01*
G01X2350Y17354D02*
G01X2372Y17331D01*
G01X2372Y17331D02*
G01X2395Y17286D01*
G01X2395Y17286D02*
G01X2395Y17240D01*
G01X2395Y17240D02*
G01X2372Y17195D01*
G01X2372Y17195D02*
G01X2327Y17127D01*
G01X2327Y17127D02*
G01X2100Y16900D01*
G01X2418Y16900D02*
G01X2100Y16900D01*
G04 Draw part U3*
G04 draw part outline for part U3*
G01X8590Y4775D02*
G01X8590Y2763D01*
G01X8590Y2763D02*
G01X9377Y2763D01*
G01X9377Y2763D02*
G01X9377Y4775D01*
G01X9377Y4775D02*
G01X8590Y4775D01*
G01X8787Y4775D02*
G01X8787Y4578D01*
G01X8787Y4578D02*
G01X9181Y4578D01*
G01X9181Y4578D02*
G01X9181Y4775D01*
G01X9181Y4775D02*
G01X8787Y4775D01*
G04 draw reference designator for part U3*
G01X8000Y5477D02*
G01X8000Y5136D01*
G01X8000Y5136D02*
G01X8022Y5068D01*
G01X8022Y5068D02*
G01X8068Y5022D01*
G01X8068Y5022D02*
G01X8136Y5000D01*
G01X8181Y5000D02*
G01X8136Y5000D01*
G01X8250Y5022D02*
G01X8181Y5000D01*
G01X8295Y5068D02*
G01X8250Y5022D01*
G01X8318Y5136D02*
G01X8295Y5068D01*
G01X8318Y5477D02*
G01X8318Y5136D01*
G01X8795Y5477D02*
G01X8545Y5477D01*
G01X8795Y5477D02*
G01X8659Y5295D01*
G01X8727Y5295D02*
G01X8659Y5295D01*
G01X8727Y5295D02*
G01X8772Y5272D01*
G01X8772Y5272D02*
G01X8795Y5250D01*
G01X8795Y5250D02*
G01X8818Y5181D01*
G01X8818Y5181D02*
G01X8818Y5136D01*
G01X8818Y5136D02*
G01X8795Y5068D01*
G01X8795Y5068D02*
G01X8750Y5022D01*
G01X8750Y5022D02*
G01X8681Y5000D01*
G01X8613Y5000D02*
G01X8681Y5000D01*
G01X8545Y5022D02*
G01X8613Y5000D01*
G01X8522Y5045D02*
G01X8545Y5022D01*
G01X8500Y5090D02*
G01X8522Y5045D01*
G04 Draw part U4*
G04 draw part outline for part U4*
G01X22090Y4875D02*
G01X22090Y2863D01*
G01X22090Y2863D02*
G01X22877Y2863D01*
G01X22877Y2863D02*
G01X22877Y4875D01*
G01X22877Y4875D02*
G01X22090Y4875D01*
G01X22287Y4875D02*
G01X22287Y4678D01*
G01X22287Y4678D02*
G01X22681Y4678D01*
G01X22681Y4678D02*
G01X22681Y4875D01*
G01X22681Y4875D02*
G01X22287Y4875D01*
G04 draw reference designator for part U4*
G01X22100Y5477D02*
G01X22100Y5136D01*
G01X22100Y5136D02*
G01X22122Y5068D01*
G01X22122Y5068D02*
G01X22168Y5022D01*
G01X22168Y5022D02*
G01X22236Y5000D01*
G01X22281Y5000D02*
G01X22236Y5000D01*
G01X22350Y5022D02*
G01X22281Y5000D01*
G01X22395Y5068D02*
G01X22350Y5022D01*
G01X22418Y5136D02*
G01X22395Y5068D01*
G01X22418Y5477D02*
G01X22418Y5136D01*
G01X22827Y5477D02*
G01X22600Y5159D01*
G01X22940Y5159D02*
G01X22600Y5159D01*
G01X22827Y5477D02*
G01X22827Y5000D01*
G04 Draw part U5*
G04 draw part outline for part U5*
G01X17890Y4575D02*
G01X17890Y2563D01*
G01X17890Y2563D02*
G01X18677Y2563D01*
G01X18677Y2563D02*
G01X18677Y4575D01*
G01X18677Y4575D02*
G01X17890Y4575D01*
G01X18087Y4575D02*
G01X18087Y4378D01*
G01X18087Y4378D02*
G01X18481Y4378D01*
G01X18481Y4378D02*
G01X18481Y4575D01*
G01X18481Y4575D02*
G01X18087Y4575D01*
G04 draw reference designator for part U5*
G01X18577Y3900D02*
G01X18236Y3900D01*
G01X18236Y3900D02*
G01X18168Y3877D01*
G01X18168Y3877D02*
G01X18122Y3831D01*
G01X18122Y3831D02*
G01X18100Y3763D01*
G01X18100Y3718D02*
G01X18100Y3763D01*
G01X18122Y3650D02*
G01X18100Y3718D01*
G01X18168Y3604D02*
G01X18122Y3650D01*
G01X18236Y3581D02*
G01X18168Y3604D01*
G01X18577Y3581D02*
G01X18236Y3581D01*
G01X18577Y3354D02*
G01X18577Y3127D01*
G01X18577Y3354D02*
G01X18372Y3377D01*
G01X18395Y3354D02*
G01X18372Y3377D01*
G01X18418Y3286D02*
G01X18395Y3354D01*
G01X18418Y3218D02*
G01X18418Y3286D01*
G01X18418Y3218D02*
G01X18395Y3150D01*
G01X18395Y3150D02*
G01X18350Y3104D01*
G01X18350Y3104D02*
G01X18281Y3081D01*
G01X18281Y3081D02*
G01X18236Y3081D01*
G01X18236Y3081D02*
G01X18168Y3104D01*
G01X18168Y3104D02*
G01X18122Y3150D01*
G01X18122Y3150D02*
G01X18100Y3218D01*
G01X18100Y3286D02*
G01X18100Y3218D01*
G01X18122Y3354D02*
G01X18100Y3286D01*
G01X18145Y3377D02*
G01X18122Y3354D01*
G01X18190Y3400D02*
G01X18145Y3377D01*
G04 Draw part J1*
G04 draw part outline for part J1*
G54D12*
G01X11700Y7300D02*
G01X11700Y16700D01*
G01X11700Y16700D02*
G01X6600Y16700D01*
G01X6600Y16700D02*
G01X6600Y5900D01*
G01X6600Y5900D02*
G01X11700Y5900D01*
G01X11700Y5900D02*
G01X11700Y7300D01*
G04 draw reference designator for part J1*
G01X8145Y10554D02*
G01X8872Y10554D01*
G01X8872Y10554D02*
G01X9009Y10509D01*
G01X9009Y10509D02*
G01X9054Y10463D01*
G01X9054Y10463D02*
G01X9100Y10372D01*
G01X9100Y10281D02*
G01X9100Y10372D01*
G01X9054Y10190D02*
G01X9100Y10281D01*
G01X9009Y10145D02*
G01X9054Y10190D01*
G01X8872Y10100D02*
G01X9009Y10145D01*
G01X8781Y10100D02*
G01X8872Y10100D01*
G01X8281Y11009D02*
G01X8327Y10918D01*
G01X8145Y11145D02*
G01X8281Y11009D01*
G01X8145Y11145D02*
G01X9100Y11145D01*
G04 Draw part J7*
G04 draw part outline for part J7*
G01X29200Y9100D02*
G01X29200Y13300D01*
G01X29200Y13300D02*
G01X26200Y13300D01*
G01X26200Y13300D02*
G01X26200Y7800D01*
G01X26200Y7800D02*
G01X29200Y7800D01*
G01X29200Y7800D02*
G01X29200Y9100D01*
G04 draw reference designator for part J7*
G01X25954Y10954D02*
G01X25954Y10227D01*
G01X25954Y10227D02*
G01X25909Y10090D01*
G01X25909Y10090D02*
G01X25863Y10045D01*
G01X25863Y10045D02*
G01X25772Y10000D01*
G01X25681Y10000D02*
G01X25772Y10000D01*
G01X25590Y10045D02*
G01X25681Y10000D01*
G01X25545Y10090D02*
G01X25590Y10045D01*
G01X25500Y10227D02*
G01X25545Y10090D01*
G01X25500Y10318D02*
G01X25500Y10227D01*
G01X26954Y10954D02*
G01X26500Y10000D01*
G01X26954Y10954D02*
G01X26318Y10954D01*
G04 Draw part J3*
G04 draw part outline for part J3*
G01X33180Y8822D02*
G01X33180Y7917D01*
G01X33180Y7917D02*
G01X30227Y7917D01*
G01X30227Y7917D02*
G01X30227Y8822D01*
G01X30227Y8822D02*
G01X30227Y11814D01*
G01X30227Y11814D02*
G01X30227Y12681D01*
G01X30227Y12681D02*
G01X33180Y12681D01*
G01X33180Y12681D02*
G01X33180Y11814D01*
G01X33180Y11814D02*
G01X33180Y8783D01*
G01X33180Y8783D02*
G01X33180Y8822D01*
G04 draw reference designator for part J3*
G01X31745Y10354D02*
G01X32472Y10354D01*
G01X32472Y10354D02*
G01X32609Y10309D01*
G01X32609Y10309D02*
G01X32654Y10263D01*
G01X32654Y10263D02*
G01X32700Y10172D01*
G01X32700Y10081D02*
G01X32700Y10172D01*
G01X32654Y9990D02*
G01X32700Y10081D01*
G01X32609Y9945D02*
G01X32654Y9990D01*
G01X32472Y9900D02*
G01X32609Y9945D01*
G01X32381Y9900D02*
G01X32472Y9900D01*
G01X31745Y11309D02*
G01X31745Y10809D01*
G01X31745Y11309D02*
G01X32109Y11036D01*
G01X32109Y11172D02*
G01X32109Y11036D01*
G01X32109Y11172D02*
G01X32154Y11263D01*
G01X32154Y11263D02*
G01X32200Y11309D01*
G01X32200Y11309D02*
G01X32336Y11354D01*
G01X32336Y11354D02*
G01X32427Y11354D01*
G01X32427Y11354D02*
G01X32563Y11309D01*
G01X32563Y11309D02*
G01X32654Y11218D01*
G01X32654Y11218D02*
G01X32700Y11081D01*
G01X32700Y10945D02*
G01X32700Y11081D01*
G01X32654Y10809D02*
G01X32700Y10945D01*
G01X32609Y10763D02*
G01X32654Y10809D01*
G01X32518Y10718D02*
G01X32609Y10763D01*
G04 Draw part J4*
G04 draw part outline for part J4*
G01X33080Y3222D02*
G01X33080Y2317D01*
G01X33080Y2317D02*
G01X30127Y2317D01*
G01X30127Y2317D02*
G01X30127Y3222D01*
G01X30127Y3222D02*
G01X30127Y6214D01*
G01X30127Y6214D02*
G01X30127Y7081D01*
G01X30127Y7081D02*
G01X33080Y7081D01*
G01X33080Y7081D02*
G01X33080Y6214D01*
G01X33080Y6214D02*
G01X33080Y3183D01*
G01X33080Y3183D02*
G01X33080Y3222D01*
G04 draw reference designator for part J4*
G01X31345Y4654D02*
G01X32072Y4654D01*
G01X32072Y4654D02*
G01X32209Y4609D01*
G01X32209Y4609D02*
G01X32254Y4563D01*
G01X32254Y4563D02*
G01X32300Y4472D01*
G01X32300Y4381D02*
G01X32300Y4472D01*
G01X32254Y4290D02*
G01X32300Y4381D01*
G01X32209Y4245D02*
G01X32254Y4290D01*
G01X32072Y4200D02*
G01X32209Y4245D01*
G01X31981Y4200D02*
G01X32072Y4200D01*
G01X31345Y5472D02*
G01X31981Y5018D01*
G01X31981Y5700D02*
G01X31981Y5018D01*
G01X31345Y5472D02*
G01X32300Y5472D01*
G04 Draw part J5*
G04 draw part outline for part J5*
G01X33080Y14722D02*
G01X33080Y13817D01*
G01X33080Y13817D02*
G01X30127Y13817D01*
G01X30127Y13817D02*
G01X30127Y14722D01*
G01X30127Y14722D02*
G01X30127Y17714D01*
G01X30127Y17714D02*
G01X30127Y18581D01*
G01X30127Y18581D02*
G01X33080Y18581D01*
G01X33080Y18581D02*
G01X33080Y17714D01*
G01X33080Y17714D02*
G01X33080Y14683D01*
G01X33080Y14683D02*
G01X33080Y14722D01*
G04 draw reference designator for part J5*
G01X31345Y15854D02*
G01X32072Y15854D01*
G01X32072Y15854D02*
G01X32209Y15809D01*
G01X32209Y15809D02*
G01X32254Y15763D01*
G01X32254Y15763D02*
G01X32300Y15672D01*
G01X32300Y15581D02*
G01X32300Y15672D01*
G01X32254Y15490D02*
G01X32300Y15581D01*
G01X32209Y15445D02*
G01X32254Y15490D01*
G01X32072Y15400D02*
G01X32209Y15445D01*
G01X31981Y15400D02*
G01X32072Y15400D01*
G01X31345Y16309D02*
G01X31345Y16763D01*
G01X31345Y16309D02*
G01X31754Y16263D01*
G01X31709Y16309D02*
G01X31754Y16263D01*
G01X31663Y16445D02*
G01X31709Y16309D01*
G01X31663Y16581D02*
G01X31663Y16445D01*
G01X31663Y16581D02*
G01X31709Y16718D01*
G01X31709Y16718D02*
G01X31800Y16809D01*
G01X31800Y16809D02*
G01X31936Y16854D01*
G01X31936Y16854D02*
G01X32027Y16854D01*
G01X32027Y16854D02*
G01X32163Y16809D01*
G01X32163Y16809D02*
G01X32254Y16718D01*
G01X32254Y16718D02*
G01X32300Y16581D01*
G01X32300Y16445D02*
G01X32300Y16581D01*
G01X32254Y16309D02*
G01X32300Y16445D01*
G01X32209Y16263D02*
G01X32254Y16309D01*
G01X32118Y16218D02*
G01X32209Y16263D01*
G04 Draw part R22*
G04 Draw part C13*
G04 Draw part D8*
G04 draw part outline for part D8*
G54D11*
G01X19200Y13000D02*
G01X22600Y13000D01*
G01X22600Y13000D02*
G01X22600Y14600D01*
G01X22600Y14600D02*
G01X19200Y14600D01*
G01X19200Y14600D02*
G01X19200Y13000D01*
G01X19200Y14400D02*
G01X22600Y14400D01*
G04 draw reference designator for part D8*
G01X20400Y13877D02*
G01X20400Y13400D01*
G01X20559Y13877D02*
G01X20400Y13877D01*
G01X20559Y13877D02*
G01X20627Y13854D01*
G01X20627Y13854D02*
G01X20672Y13809D01*
G01X20672Y13809D02*
G01X20695Y13763D01*
G01X20695Y13763D02*
G01X20718Y13695D01*
G01X20718Y13695D02*
G01X20718Y13581D01*
G01X20718Y13581D02*
G01X20695Y13513D01*
G01X20695Y13513D02*
G01X20672Y13468D01*
G01X20672Y13468D02*
G01X20627Y13422D01*
G01X20627Y13422D02*
G01X20559Y13400D01*
G01X20400Y13400D02*
G01X20559Y13400D01*
G01X21013Y13877D02*
G01X20945Y13854D01*
G01X20945Y13854D02*
G01X20922Y13809D01*
G01X20922Y13809D02*
G01X20922Y13763D01*
G01X20922Y13763D02*
G01X20945Y13718D01*
G01X20945Y13718D02*
G01X20990Y13695D01*
G01X20990Y13695D02*
G01X21081Y13672D01*
G01X21081Y13672D02*
G01X21150Y13650D01*
G01X21150Y13650D02*
G01X21195Y13604D01*
G01X21195Y13604D02*
G01X21218Y13559D01*
G01X21218Y13559D02*
G01X21218Y13490D01*
G01X21218Y13490D02*
G01X21195Y13445D01*
G01X21195Y13445D02*
G01X21172Y13422D01*
G01X21172Y13422D02*
G01X21104Y13400D01*
G01X21013Y13400D02*
G01X21104Y13400D01*
G01X20945Y13422D02*
G01X21013Y13400D01*
G01X20922Y13445D02*
G01X20945Y13422D01*
G01X20900Y13490D02*
G01X20922Y13445D01*
G01X20900Y13559D02*
G01X20900Y13490D01*
G01X20922Y13604D02*
G01X20900Y13559D01*
G01X20968Y13650D02*
G01X20922Y13604D01*
G01X21036Y13672D02*
G01X20968Y13650D01*
G01X21127Y13695D02*
G01X21036Y13672D01*
G01X21172Y13718D02*
G01X21127Y13695D01*
G01X21195Y13763D02*
G01X21172Y13718D01*
G01X21195Y13809D02*
G01X21195Y13763D01*
G01X21172Y13854D02*
G01X21195Y13809D01*
G01X21104Y13877D02*
G01X21172Y13854D01*
G01X21013Y13877D02*
G01X21104Y13877D01*
G04 Draw part U8*
G04 draw part outline for part U8*
G54D12*
G01X25100Y18500D02*
G01X25100Y14500D01*
G01X25100Y14500D02*
G01X26500Y14500D01*
G01X26500Y14500D02*
G01X26900Y14500D01*
G01X26900Y14500D02*
G01X26900Y18500D01*
G01X26900Y18500D02*
G01X26500Y18500D01*
G01X26500Y18500D02*
G01X25100Y18500D01*
G04 draw reference designator for part U8*
G01X25200Y19154D02*
G01X25200Y18472D01*
G01X25200Y18472D02*
G01X25245Y18336D01*
G01X25245Y18336D02*
G01X25336Y18245D01*
G01X25336Y18245D02*
G01X25472Y18200D01*
G01X25563Y18200D02*
G01X25472Y18200D01*
G01X25700Y18245D02*
G01X25563Y18200D01*
G01X25790Y18336D02*
G01X25700Y18245D01*
G01X25836Y18472D02*
G01X25790Y18336D01*
G01X25836Y19154D02*
G01X25836Y18472D01*
G01X26427Y19154D02*
G01X26290Y19109D01*
G01X26290Y19109D02*
G01X26245Y19018D01*
G01X26245Y19018D02*
G01X26245Y18927D01*
G01X26245Y18927D02*
G01X26290Y18836D01*
G01X26290Y18836D02*
G01X26381Y18790D01*
G01X26381Y18790D02*
G01X26563Y18745D01*
G01X26563Y18745D02*
G01X26700Y18700D01*
G01X26700Y18700D02*
G01X26790Y18609D01*
G01X26790Y18609D02*
G01X26836Y18518D01*
G01X26836Y18518D02*
G01X26836Y18381D01*
G01X26836Y18381D02*
G01X26790Y18290D01*
G01X26790Y18290D02*
G01X26745Y18245D01*
G01X26745Y18245D02*
G01X26609Y18200D01*
G01X26427Y18200D02*
G01X26609Y18200D01*
G01X26290Y18245D02*
G01X26427Y18200D01*
G01X26245Y18290D02*
G01X26290Y18245D01*
G01X26200Y18381D02*
G01X26245Y18290D01*
G01X26200Y18518D02*
G01X26200Y18381D01*
G01X26245Y18609D02*
G01X26200Y18518D01*
G01X26336Y18700D02*
G01X26245Y18609D01*
G01X26472Y18745D02*
G01X26336Y18700D01*
G01X26654Y18790D02*
G01X26472Y18745D01*
G01X26745Y18836D02*
G01X26654Y18790D01*
G01X26790Y18927D02*
G01X26745Y18836D01*
G01X26790Y19018D02*
G01X26790Y18927D01*
G01X26745Y19109D02*
G01X26790Y19018D01*
G01X26609Y19154D02*
G01X26745Y19109D01*
G01X26427Y19154D02*
G01X26609Y19154D01*
G04 Draw part C12*
G04 draw part outline for part C12*
G04 draw reference designator for part C12*
G01X27636Y15218D02*
G01X27681Y15127D01*
G01X27545Y15309D02*
G01X27636Y15218D01*
G01X27454Y15354D02*
G01X27545Y15309D01*
G01X27272Y15354D02*
G01X27454Y15354D01*
G01X27272Y15354D02*
G01X27181Y15309D01*
G01X27181Y15309D02*
G01X27090Y15218D01*
G01X27090Y15218D02*
G01X27045Y15127D01*
G01X27045Y15127D02*
G01X27000Y14990D01*
G01X27000Y14990D02*
G01X27000Y14763D01*
G01X27000Y14763D02*
G01X27045Y14627D01*
G01X27045Y14627D02*
G01X27090Y14536D01*
G01X27090Y14536D02*
G01X27181Y14445D01*
G01X27181Y14445D02*
G01X27272Y14400D01*
G01X27454Y14400D02*
G01X27272Y14400D01*
G01X27545Y14445D02*
G01X27454Y14400D01*
G01X27636Y14536D02*
G01X27545Y14445D01*
G01X27681Y14627D02*
G01X27636Y14536D01*
G01X28136Y15218D02*
G01X28045Y15172D01*
G01X28272Y15354D02*
G01X28136Y15218D01*
G01X28272Y15354D02*
G01X28272Y14400D01*
G01X28681Y15172D02*
G01X28681Y15127D01*
G01X28727Y15263D02*
G01X28681Y15172D01*
G01X28772Y15309D02*
G01X28727Y15263D01*
G01X28863Y15354D02*
G01X28772Y15309D01*
G01X29045Y15354D02*
G01X28863Y15354D01*
G01X29045Y15354D02*
G01X29136Y15309D01*
G01X29136Y15309D02*
G01X29181Y15263D01*
G01X29181Y15263D02*
G01X29227Y15172D01*
G01X29227Y15172D02*
G01X29227Y15081D01*
G01X29227Y15081D02*
G01X29181Y14990D01*
G01X29181Y14990D02*
G01X29090Y14854D01*
G01X29090Y14854D02*
G01X28636Y14400D01*
G01X29272Y14400D02*
G01X28636Y14400D01*
G04 Draw part L1*
G04 draw part outline for part L1*
G01X17000Y18800D02*
G01X17000Y15100D01*
G01X17000Y15100D02*
G01X22800Y15100D01*
G01X22800Y15100D02*
G01X22800Y18900D01*
G01X22800Y18900D02*
G01X17000Y18900D01*
G01X17000Y18900D02*
G01X17000Y18800D01*
G04 draw reference designator for part L1*
G01X21000Y16954D02*
G01X21000Y16000D01*
G01X21545Y16000D02*
G01X21000Y16000D01*
G01X22000Y16818D02*
G01X21909Y16772D01*
G01X22136Y16954D02*
G01X22000Y16818D01*
G01X22136Y16954D02*
G01X22136Y16000D01*
G04 Draw part C14*
G04 draw part outline for part C14*
G04 draw reference designator for part C14*
G01X26436Y13918D02*
G01X26481Y13827D01*
G01X26345Y14009D02*
G01X26436Y13918D01*
G01X26254Y14054D02*
G01X26345Y14009D01*
G01X26072Y14054D02*
G01X26254Y14054D01*
G01X26072Y14054D02*
G01X25981Y14009D01*
G01X25981Y14009D02*
G01X25890Y13918D01*
G01X25890Y13918D02*
G01X25845Y13827D01*
G01X25845Y13827D02*
G01X25800Y13690D01*
G01X25800Y13690D02*
G01X25800Y13463D01*
G01X25800Y13463D02*
G01X25845Y13327D01*
G01X25845Y13327D02*
G01X25890Y13236D01*
G01X25890Y13236D02*
G01X25981Y13145D01*
G01X25981Y13145D02*
G01X26072Y13100D01*
G01X26254Y13100D02*
G01X26072Y13100D01*
G01X26345Y13145D02*
G01X26254Y13100D01*
G01X26436Y13236D02*
G01X26345Y13145D01*
G01X26481Y13327D02*
G01X26436Y13236D01*
G01X26936Y13918D02*
G01X26845Y13872D01*
G01X27072Y14054D02*
G01X26936Y13918D01*
G01X27072Y14054D02*
G01X27072Y13100D01*
G01X27890Y14054D02*
G01X27436Y13418D01*
G01X28118Y13418D02*
G01X27436Y13418D01*
G01X27890Y14054D02*
G01X27890Y13100D01*

G04 Draw traces*

G04 Draw Text*
G54D11*
G01X27240Y8163D02*
G01X27218Y8209D01*
G01X27218Y8209D02*
G01X27172Y8254D01*
G01X27172Y8254D02*
G01X27127Y8277D01*
G01X27127Y8277D02*
G01X27036Y8277D01*
G01X27036Y8277D02*
G01X26990Y8254D01*
G01X26990Y8254D02*
G01X26945Y8209D01*
G01X26945Y8209D02*
G01X26922Y8163D01*
G01X26922Y8163D02*
G01X26900Y8095D01*
G01X26900Y8095D02*
G01X26900Y7981D01*
G01X26900Y7981D02*
G01X26922Y7913D01*
G01X26922Y7913D02*
G01X26945Y7868D01*
G01X26945Y7868D02*
G01X26990Y7822D01*
G01X26990Y7822D02*
G01X27036Y7800D01*
G01X27036Y7800D02*
G01X27127Y7800D01*
G01X27127Y7800D02*
G01X27172Y7822D01*
G01X27172Y7822D02*
G01X27218Y7868D01*
G01X27218Y7868D02*
G01X27240Y7913D01*
G01X27240Y7913D02*
G01X27240Y7981D01*
G01X27127Y7981D02*
G01X27240Y7981D01*
G01X27422Y8277D02*
G01X27422Y7800D01*
G01X27422Y8277D02*
G01X27740Y7800D01*
G01X27740Y8277D02*
G01X27740Y7800D01*
G01X27922Y8277D02*
G01X27922Y7800D01*
G01X27922Y8277D02*
G01X28081Y8277D01*
G01X28081Y8277D02*
G01X28149Y8254D01*
G01X28149Y8254D02*
G01X28195Y8209D01*
G01X28195Y8209D02*
G01X28218Y8163D01*
G01X28218Y8163D02*
G01X28240Y8095D01*
G01X28240Y8095D02*
G01X28240Y7981D01*
G01X28240Y7981D02*
G01X28218Y7913D01*
G01X28218Y7913D02*
G01X28195Y7868D01*
G01X28195Y7868D02*
G01X28149Y7822D01*
G01X28149Y7822D02*
G01X28081Y7800D01*
G01X28081Y7800D02*
G01X27922Y7800D01*
M00*
M02*
